<?xml version="1.0" standalone="no"?>
<!DOCTYPE svg PUBLIC "-//W3C//DTD SVG 1.1//EN" "http://www.w3.org/Graphics/SVG/1.1/DTD/svg11.dtd" >
<svg xmlns="http://www.w3.org/2000/svg" xmlns:xlink="http://www.w3.org/1999/xlink" version="1.1">
<metadata></metadata>
<defs>
<font id="slush_iconsregular" horiz-adv-x="2048" >
<font-face units-per-em="2048" ascent="1638" descent="-410" />
<missing-glyph horiz-adv-x="500" />
<glyph unicode="&#xe001;" d="M690 2045q-179 0 -260.5 -5.5t-157.5 -29.5q-91 -33 -159 -101t-101 -159q-24 -76 -29.5 -157.5t-5.5 -260.5v-620q0 -179 5.5 -260.5t29.5 -157.5q33 -91 101 -159t159 -101q76 -24 157.5 -29.5t260.5 -5.5h620q179 0 260.5 5.5t157.5 29.5q91 33 159 101t101 159 q24 76 29.5 157.5t5.5 260.5v620q0 179 -5.5 260.5t-29.5 157.5q-33 91 -101 159t-159 101q-76 24 -157.5 29.5t-260.5 5.5h-620zM300 1584h248v-528l214 -1v233l496 -232v232l442 -242v-586h-1400v1124z" />
<glyph unicode="&#xe002;" d="M690 2047q-179 0 -260.5 -5.5t-157.5 -29.5q-91 -33 -159 -101t-101 -159q-24 -76 -29.5 -157.5t-5.5 -260.5v-620q0 -179 5.5 -260.5t29.5 -157.5q33 -91 101 -159t159 -101q76 -24 157.5 -29.5t260.5 -5.5h620q179 0 260.5 5.5t157.5 29.5q91 33 159 101t101 159 q24 76 29.5 157.5t5.5 260.5v620q0 179 -5.5 260.5t-29.5 157.5q-33 91 -101 159t-159 101q-76 24 -157.5 29.5t-260.5 5.5h-620zM838 1783h100v-266h-100v266zM1064 1783h100v-266h-100v266zM1288 1783h100v-266h-100v266zM614 1779h100v-266h-100v266zM652 1462h696 q37 0 63.5 -26.5t26.5 -63.5v-696q0 -37 -26.5 -63.5t-63.5 -26.5h-696q-37 0 -63.5 26.5t-26.5 63.5v696q0 37 26.5 63.5t63.5 26.5zM240 1411h266v-100h-266v100zM1489 1411h266v-100h-266v100zM662 1362v-676h676v676h-676zM240 1187h266v-100h-266v100zM1489 1187h266 v-100h-266v100zM240 961h266v-100h-266v100zM1489 961h266v-100h-266v100zM244 737h266v-100h-266v100zM1493 737h266v-100h-266v100zM838 536h100v-266h-100v266zM1064 536h100v-266h-100v266zM1288 536h100v-266h-100v266zM614 532h100v-266h-100v266z" />
<glyph unicode="&#xe003;" d="M704 2043q-123 0 -177.5 -1.5t-117.5 -9t-115 -24.5q-89 -33 -155.5 -101t-98.5 -159q-23 -76 -28.5 -157.5t-5.5 -260.5v-443l-1 -27h1v-150q0 -179 5.5 -260.5t28.5 -157.5q32 -91 98.5 -159t155.5 -101q52 -17 115 -24.5t117.5 -9t177.5 -1.5h606q123 0 177.5 1.5 t117.5 9t115 24.5q89 33 156 101t99 159q23 76 28.5 157.5t5.5 260.5v620q0 179 -5.5 260.5t-28.5 157.5q-32 91 -99 159t-156 101q-52 17 -115 24.5t-117.5 9t-177.5 1.5h-606zM688 1750q50 0 99 -13q46 -12 84.5 -38.5t61.5 -53.5t41 -60.5t24.5 -52t10.5 -34.5 q4 16 10.5 34.5t24.5 52t41 60.5t61.5 53.5t84.5 38.5q49 13 99 13q61 0 120.5 -17t89.5 -34l29 -17q36 -18 73.5 -58t54.5 -78q6 -11 15.5 -30.5t27.5 -79t23 -117t-11.5 -134t-62.5 -141.5q-43 -61 -97 -124h-389l-64 357h-57l-67 -384l-54 175l-18 59l-34 -51l-109 -165 l-370 4q-72 87 -102 129q-46 65 -63.5 140.5t-9.5 137t22 113.5t29 81l15 30q17 38 54 78t73 58q12 8 32.5 19t83.5 30t124 19zM1111 1102l39 -217l4 -25h25h362q-223 -258 -531 -566v-3l-1 2l-2 -2v3q-30 30 -97 98.5t-201 211.5t-228 251l335 -4l15 -1l9 14l84 126 l71 -232l57 4z" />
<glyph unicode="&#xe004;" d="M690 2047q-179 0 -260.5 -5.5t-157.5 -29.5q-91 -33 -159 -101t-101 -159q-24 -76 -29.5 -157.5t-5.5 -260.5v-620q0 -179 5.5 -260.5t29.5 -157.5q33 -91 101 -159t159 -101q76 -24 157.5 -29.5t260.5 -5.5h620q179 0 260.5 5.5t157.5 29.5q91 33 159 101t101 159 q24 76 29.5 157.5t5.5 260.5v620q0 179 -5.5 260.5t-29.5 157.5q-33 91 -101 159t-159 101q-76 24 -157.5 29.5t-260.5 5.5h-620zM1001 1671q89 0 152 -62.5t63 -151.5q0 -56 -27 -104.5t-73 -77.5v-55q4 0 10.5 -0.5t24 -4t31.5 -10t28 -21t19 -34.5q8 -32 -12 -56.5 t-43 -33.5l-24 -8q29 -71 46 -97q32 -47 104 -110q16 -14 28 -35.5t16 -35.5l3 -14q71 2 118 -11q21 -6 35 -23.5t18 -31.5l4 -15q-9 -43 -37 -67q-12 -11 -37 -15t-44 -3l-18 2q58 -63 79 -91l39 -56q23 -35 10 -59t-54 -24h-913q-41 0 -55.5 25.5t6.5 60.5q5 10 34 53 q13 19 35.5 42t38.5 36l17 13q-51 -10 -91 10q-18 9 -29.5 27t-14.5 32l-3 14q0 5 1 12t12.5 24.5t33.5 27.5t53 14.5t51 3.5l21 -1q-2 34 37 75q14 15 38.5 38t42 41t26.5 32q11 16 24 44.5t21 48.5l7 20l-10 2.5t-21 8.5t-26 16t-19 26t-5 38q4 33 32 50.5t54 18.5l25 1 v57q-44 29 -70.5 77t-26.5 103q0 89 63 151.5t152 62.5z" />
<glyph unicode="&#xe005;" d="M690 2047q-179 0 -260.5 -5.5t-157.5 -29.5q-91 -33 -159 -101t-101 -159q-24 -76 -29.5 -157.5t-5.5 -260.5v-620q0 -179 5.5 -260.5t29.5 -157.5q33 -91 101 -159t159 -101q76 -24 157.5 -29.5t260.5 -5.5h620q179 0 260.5 5.5t157.5 29.5q91 33 159 101t101 159 q24 76 29.5 157.5t5.5 260.5v620q0 179 -5.5 260.5t-29.5 157.5q-33 91 -101 159t-159 101q-76 24 -157.5 29.5t-260.5 5.5h-620zM1594 1608q-2 -11 -6.5 -29.5t-22.5 -72.5t-41 -104.5t-65 -114.5t-91 -113t-99 -77t-85.5 -33.5t-64.5 -4t-43 8.5l-15 6q-4 5 -9 13.5 t-10 38.5t1 63t36 85t83 106t117.5 97.5t118 67t99 39t71.5 20.5zM936 1471l51 -307q4 -25 -3.5 -56.5t-22.5 -51.5l-178 -241l-58 376q-4 25 6 55t27 47zM656 1191l51 -307q4 -25 -3 -56.5t-22 -51.5l-179 -241l-58 376q-4 25 6 55t27 47zM1132 1000q14 0 20 -1l307 -51 l-178 -178q-17 -17 -47 -27t-55 -6l-376 58l241 178q37 27 88 27zM852 721q8 0 20 -2l307 -51l-178 -178q-17 -17 -47 -27t-55 -6l-376 58l241 179q37 27 88 27z" />
<glyph unicode="&#xe006;" d="M690 2047q-179 0 -260.5 -5.5t-157.5 -29.5q-91 -33 -159 -101t-101 -159q-24 -76 -29.5 -157.5t-5.5 -260.5v-620q0 -179 5.5 -260.5t29.5 -157.5q33 -91 101 -159t159 -101q76 -24 157.5 -29.5t260.5 -5.5h620q179 0 260.5 5.5t157.5 29.5q91 33 159 101t101 159 q24 76 29.5 157.5t5.5 260.5v620q0 179 -5.5 260.5t-29.5 157.5q-33 91 -101 159t-159 101q-76 24 -157.5 29.5t-260.5 5.5h-620zM327 1615h1346v-1184h-1346v1184zM815 1442v-30v-106h-19h-30v-26h-376v-60h376v-196h-376v-60h376v-190h-376v-60h406v29h17v-109v-30h30h305 h30v30v96h23h17v-26h405v60h-392v204h394v60h-394v186h394v60h-394v27h-30h-19v45h-60v-75v-30h30h19v-451h-23h-30v-30v-96h-245v109v30h-30h-17v443h18h30v30v106h287v60h-317h-29z" />
<glyph unicode="&#xe007;" d="M690 2047q-179 0 -260.5 -5.5t-157.5 -29.5q-91 -33 -159 -101t-101 -159q-24 -76 -29.5 -157.5t-5.5 -260.5v-620q0 -179 5.5 -260.5t29.5 -157.5q33 -91 101 -159t159 -101q76 -24 157.5 -29.5t260.5 -5.5h620q179 0 260.5 5.5t157.5 29.5q91 33 159 101t101 159 q24 76 29.5 157.5t5.5 260.5v620q0 179 -5.5 260.5t-29.5 157.5q-33 91 -101 159t-159 101q-76 24 -157.5 29.5t-260.5 5.5h-620zM1114 1822q112 1 226 -35q143 -46 252.5 -143.5t171.5 -228.5l23 -49l-50 -19l-608 -237l-67 -26l-1 72l-10 615l-1 49l50 2h14zM1152 1721 l8 -492l488 190q-118 202 -338 273q-74 24 -158 29zM972 1657v-661l421 -519q-182 -145 -413 -145q-180 0 -332.5 89t-241 241.5t-88.5 332.5q0 179 87.5 330.5t238 240.5t328.5 91zM1624 1224q38 -106 38 -223q0 -140 -54.5 -265t-152.5 -217l-413 505z" />
<glyph unicode="&#xe008;" d="M690 2047q-179 0 -260.5 -5.5t-157.5 -29.5q-91 -33 -159 -101t-101 -159q-24 -76 -29.5 -157.5t-5.5 -260.5v-620q0 -179 5.5 -260.5t29.5 -157.5q33 -91 101 -159t159 -101q76 -24 157.5 -29.5t260.5 -5.5h620q179 0 260.5 5.5t157.5 29.5q91 33 159 101t101 159 q24 76 29.5 157.5t5.5 260.5v620q0 179 -5.5 260.5t-29.5 157.5q-33 91 -101 159t-159 101q-76 24 -157.5 29.5t-260.5 5.5h-620zM1276 1827l-231 -675l446 7l-773 -940l239 674l-449 2z" />
<glyph unicode="&#xe009;" d="M690 2047q-179 0 -260.5 -5.5t-157.5 -29.5q-91 -33 -159 -101t-101 -159q-24 -76 -29.5 -157.5t-5.5 -260.5v-620q0 -179 5.5 -260.5t29.5 -157.5q33 -91 101 -159t159 -101q76 -24 157.5 -29.5t260.5 -5.5h620q179 0 260.5 5.5t157.5 29.5q91 33 159 101t101 159 q24 76 29.5 157.5t5.5 260.5v620q0 179 -5.5 260.5t-29.5 157.5q-33 91 -101 159t-159 101q-76 24 -157.5 29.5t-260.5 5.5h-620zM1253 1599q84 0 176.5 -19t142.5 -38l51 -19q13 -5 22 -19t9 -28v-882q0 -21 -14.5 -35.5t-35.5 -14.5q-16 0 -30 10q-3 2 -8 5.5t-22.5 13 t-36 17t-47.5 17.5t-57.5 13t-67 5.5t-74.5 -6.5q-114 -20 -179 -81q-14 -13 -24 -25.5t-13 -18.5l-3 -6q-5 -13 -18.5 -22t-27.5 -9q-21 0 -35.5 14.5t-14.5 35.5v37q-76 93 -228 120q-61 10 -114 6t-96.5 -17t-75 -27t-48.5 -26l-17 -11v883q20 8 54 20t126.5 32.5 t170.5 20.5q141 0 234 -101q0 1 1 2l1 2q4 6 12 16.5t36 36.5t60 45.5t83.5 36t107.5 16.5zM1253 1499q-56 0 -103.5 -19.5t-68 -37.5t-35.5 -37v-768q80 59 198 80q159 28 310 -39v764q-160 57 -301 57z" />
<glyph unicode="&#xe010;" d="M690 2047q-179 0 -260.5 -5.5t-157.5 -29.5q-91 -33 -159 -101t-101 -159q-24 -76 -29.5 -157.5t-5.5 -260.5v-620q0 -179 5.5 -260.5t29.5 -157.5q33 -91 101 -159t159 -101q76 -24 157.5 -29.5t260.5 -5.5h620q179 0 260.5 5.5t157.5 29.5q91 33 159 101t101 159 q24 76 29.5 157.5t5.5 260.5v620q0 179 -5.5 260.5t-29.5 157.5q-33 91 -101 159t-159 101q-76 24 -157.5 29.5t-260.5 5.5h-620zM1565 1706h253h1q25 0 42.5 -17.5t17.5 -42.5t-17.5 -42.5t-42.5 -17.5h-1h-208l-51 -178v-2q0 -21 -10 -34l-166 -577q4 -10 4 -20v-199 q0 -25 -17.5 -42.5t-42.5 -17.5h-51q52 -34 52 -94q0 -46 -33 -79.5t-80 -33.5t-80 33.5t-33 79.5q0 61 51 94h-516q51 -33 51 -94q0 -46 -33 -79.5t-80 -33.5t-80 33.5t-33 79.5q0 60 52 94h-118h-1q-25 0 -42.5 17.5t-17.5 42.5t17.5 42.5t42.5 17.5h1h871v81h-874 q-20 0 -37.5 14t-21.5 34l-122 629q-1 3 -1 12q0 25 17.5 42.5t42.5 17.5h1180l56 196q5 18 22 31t36 13zM344 1346l98 -509h828l146 509h-1072z" />
<glyph unicode="&#xe011;" d="M690 2047q-179 0 -260.5 -5.5t-157.5 -29.5q-91 -33 -159 -101t-101 -159q-24 -76 -29.5 -157.5t-5.5 -260.5v-620q0 -179 5.5 -260.5t29.5 -157.5q33 -91 101 -159t159 -101q76 -24 157.5 -29.5t260.5 -5.5h620q179 0 260.5 5.5t157.5 29.5q91 33 159 101t101 159 q24 76 29.5 157.5t5.5 260.5v620q0 179 -5.5 260.5t-29.5 157.5q-33 91 -101 159t-159 101q-76 24 -157.5 29.5t-260.5 5.5h-620zM764 1566h6l348 -20l-465 -133l-29 -50l626 162q58 15 116 4l4 -1q25 -4 46.5 -24.5t27.5 -44.5l76 -289q165 -19 274 -53t129 -77 q23 -51 -35.5 -110t-184.5 -119.5t-279.5 -117.5t-347.5 -116q-233 -71 -445.5 -94t-347 1.5t-170.5 85.5q-22 37 -29 81.5t7.5 101t52.5 111t117 110.5t192 100l43 289q4 25 20.5 52.5t36.5 41.5l108 77q44 32 103 32zM1528 1149q-2 -3 -8 -7.5t-40 -17.5t-85 -25 t-154.5 -27t-237.5 -25t-239.5 -11.5t-160.5 4.5t-91 13t-46 13l-10 7l-16 -219q23 -7 66.5 -17t190 -23t306.5 -5q101 5 196 22.5t159 39t113 42t72 34.5l23 14zM463 1089l-9 -15q1 0 3 1t3 1z" />
<glyph unicode="&#xe012;" d="M690 2047q-179 0 -260.5 -5.5t-157.5 -29.5q-91 -33 -159 -101t-101 -159q-24 -76 -29.5 -157.5t-5.5 -260.5v-620q0 -179 5.5 -260.5t29.5 -157.5q33 -91 101 -159t159 -101q76 -24 157.5 -29.5t260.5 -5.5h620q179 0 260.5 5.5t157.5 29.5q91 33 159 101t101 159 q24 76 29.5 157.5t5.5 260.5v620q0 179 -5.5 260.5t-29.5 157.5q-33 91 -101 159t-159 101q-76 24 -157.5 29.5t-260.5 5.5h-620zM1071 1738l291 -291l-763 -763l-44 44l-84 -84l-22 -22l-21 22l-161 161l-21 21l21 21l85 85l-44 44zM1551 1463l21 -21l161 -161l22 -22 l-22 -21l-63 -63l44 -44q8 -8 8 -21q0 -14 -8 -22l-763 -762q-9 -9 -22 -9q-12 0 -21 9l-291 291q-9 9 -9 21t9 21l763 763q9 9 21 9q13 0 22 -9l43 -44l64 64zM1551 1378l-42 -42l118 -119l43 42zM1401 1358l-720 -720l249 -249l720 721l-23 22l-11 -11l-21 -21l-21 21 l-161 161l-22 21l22 21l11 12zM1459 1197l37 -37l-47 -47l46 -46l-38 -38l-45 45l-45 -45l-38 38l44 45l-46 46l38 38l46 -46zM650 1068l-48 -48l-46 46l-38 -38l46 -46l-45 -45l39 -38l44 45l45 -45l39 38l-46 46l47 47zM394 889l-63 -63l118 -119l64 64z" />
<glyph unicode="&#xe013;" d="M690 2047q-179 0 -260.5 -5.5t-157.5 -29.5q-91 -33 -159 -101t-101 -159q-24 -76 -29.5 -157.5t-5.5 -260.5v-620q0 -179 5.5 -260.5t29.5 -157.5q33 -91 101 -159t159 -101q76 -24 157.5 -29.5t260.5 -5.5h620q179 0 260.5 5.5t157.5 29.5q91 33 159 101t101 159 q24 76 29.5 157.5t5.5 260.5v620q0 179 -5.5 260.5t-29.5 157.5q-33 91 -101 159t-159 101q-76 24 -157.5 29.5t-260.5 5.5h-620zM1622 1715h2q25 0 42.5 -17.5t17.5 -42.5v-399h4q34 0 57.5 -34t23.5 -82t-23.5 -82t-57.5 -34h-4v-407q0 -25 -17.5 -42.5t-42.5 -17.5 q-18 0 -32 9q-99 63 -227 133q-252 138 -394 179q-55 16 -155 24q-28 -90 -28 -212q0 -49 11.5 -90.5t27.5 -66.5t32 -42.5t27 -24.5l12 -7q-1 -3 -4.5 -8.5t-16 -19.5t-29 -24.5t-46 -19.5t-63.5 -9q-55 0 -103.5 13t-69.5 27l-22 13q-55 137 -64 214q-9 79 0 265l-124 -4 h-2l-2 -1q-8 0 -11 1q-16 4 -29 12q-24 15 -41 38q-44 61 -44 180q0 122 45 178q18 23 44 36l32 9h5h2l240 -4q260 2 377 36q130 37 390 180q57 32 114.5 65.5t86.5 51.5l29 18q14 9 30 9zM1564 1549q-71 -42 -144 -83q-246 -135 -390 -182v-298q145 -48 392 -182 q62 -34 142 -81v826zM910 1256q-125 -19 -314 -21q-120 -1 -230 4q-19 -25 -19 -103q0 -80 21 -110q125 5 231 5q188 0 311 -18v243z" />
<glyph unicode="&#xe014;" d="M690 2047q-179 0 -260.5 -5.5t-157.5 -29.5q-91 -33 -159 -101t-101 -159q-24 -76 -29.5 -157.5t-5.5 -260.5v-620q0 -179 5.5 -260.5t29.5 -157.5q33 -91 101 -159t159 -101q76 -24 157.5 -29.5t260.5 -5.5h620q179 0 260.5 5.5t157.5 29.5q91 33 159 101t101 159 q24 76 29.5 157.5t5.5 260.5v620q0 179 -5.5 260.5t-29.5 157.5q-33 91 -101 159t-159 101q-76 24 -157.5 29.5t-260.5 5.5h-620zM1471 1732v-1155v1q-5 -53 -67 -90.5t-147 -37.5q-88 0 -150.5 40t-62.5 96t62 95.5t151 39.5q87 0 146 -36l-5 8l-6 693l-672 -120v-758 q20 -26 20 -58q0 -56 -62.5 -95.5t-151.5 -39.5t-151 39.5t-62 95.5t62.5 96t150.5 40q69 0 124 -25v1020z" />
<glyph unicode="&#xe015;" d="M690 2047q-179 0 -260.5 -5.5t-157.5 -29.5q-91 -33 -159 -101t-101 -159q-24 -76 -29.5 -157.5t-5.5 -260.5v-620q0 -179 5.5 -260.5t29.5 -157.5q33 -91 101 -159t159 -101q76 -24 157.5 -29.5t260.5 -5.5h620q179 0 260.5 5.5t157.5 29.5q91 33 159 101t101 159 q24 76 29.5 157.5t5.5 260.5v620q0 179 -5.5 260.5t-29.5 157.5q-33 91 -101 159t-159 101q-76 24 -157.5 29.5t-260.5 5.5h-620zM1088 1724q65 2 148 -24q87 -27 141.5 -94t73.5 -152q18 -78 3 -156.5t-61 -135.5q-42 -51 -150 -94q-75 -30 -193 -59q-2 -1 -5 -1t-5 -1 v-114l22 -8q50 -18 79 -43q40 -35 40 -80q0 -48 -38 -82q-29 -27 -77 -45l-26 -10v-133l213 -83l-44 -112l-169 66v-39l110 -61h-394l111 61v106l-4 2q-48 19 -77 46q-38 36 -38 82q0 45 38 81q28 27 78 46l3 1v139l-100 35q-47 16 -75 37q-45 34 -41 81t53 73q32 17 80 26 h1h1q32 5 81 14v59q-97 23 -169 93t-99 165h708q-27 -95 -98.5 -164.5t-168.5 -92.5v-23q93 23 159 50q80 32 102 59q24 30 34 81.5t-1 107.5q-27 125 -134 158q-96 30 -169 10q-36 -36 -105 -65q-75 -32 -147 -35.5t-96 22.5q-25 26 11.5 67.5t112.5 73.5q74 31 146 36 q10 5 25 10q48 18 110 19zM867 971q-6 -1 -17 -2.5t-16 -2.5l33 -12v17zM1040 765v-11q4 2 10 6z" />
<glyph unicode="&#xe016;" d="M690 2047q-179 0 -260.5 -5.5t-157.5 -29.5q-91 -33 -159 -101t-101 -159q-24 -76 -29.5 -157.5t-5.5 -260.5v-620q0 -179 5.5 -260.5t29.5 -157.5q33 -91 101 -159t159 -101q76 -24 157.5 -29.5t260.5 -5.5h620q179 0 260.5 5.5t157.5 29.5q91 33 159 101t101 159 q24 76 29.5 157.5t5.5 260.5v620q0 179 -5.5 260.5t-29.5 157.5q-33 91 -101 159t-159 101q-76 24 -157.5 29.5t-260.5 5.5h-620zM1001 1743q196 0 361.5 -96.5t262 -262t96.5 -361.5t-96.5 -361.5t-262 -262t-361.5 -96.5t-361.5 96.5t-262 262t-96.5 361.5t96.5 361.5 t262 262t361.5 96.5zM998 1577q-93 0 -173.5 -26t-134.5 -67.5t-97.5 -92t-68 -101t-41.5 -92t-23 -67.5l-5 -26h182q50 0 90.5 14.5t68 34.5t54.5 40.5t64.5 35t83.5 14.5t87 -14.5t72.5 -35t63 -40.5t72 -34.5t86.5 -14.5h170q-2 10 -6.5 27t-23 66t-43 93.5t-70 99 t-99.5 93.5t-135 66t-174 27zM1000 1158q-56 0 -95 -39t-39 -95t39 -95t95 -39t95 39t39 95t-39 95t-95 39zM455 911q4 -18 13.5 -47.5t49.5 -104.5t92 -130t121.5 -91.5t112.5 -45.5l43 -10v269q0 66 -47 113t-113 47h-272zM1273 911q-66 0 -113 -47t-47 -113v-269 q7 1 18 3.5t45 13t66 25.5t73.5 43t74.5 62q52 55 91 125.5t51 113.5l13 43h-272z" />
<glyph unicode="&#xe017;" d="M690 2048q-126 0 -181.5 -1.5t-120 -9t-117.5 -24.5q-91 -33 -159 -101t-101 -159q-24 -76 -29.5 -157.5t-5.5 -261.5v-620q0 -126 1.5 -181.5t9 -120t24.5 -117.5q33 -91 101 -159t159 -101q76 -24 157.5 -29.5t261.5 -5.5h620q126 0 181.5 1.5t120 9t117.5 24.5 q91 33 159 101t101 159q24 76 29.5 157.5t5.5 261.5v620q0 126 -1.5 181.5t-9 120t-24.5 117.5q-33 91 -101 159t-159 101q-76 24 -157.5 29.5t-261.5 5.5h-620zM890 1874h210q13 0 21.5 -8.5t8.5 -21.5v-164q0 -13 8.5 -20t21.5 -6q7 2 19.5 3t50 -3.5t73.5 -19t83 -54 t85 -99.5t44 -126.5t-12.5 -119t-42.5 -97t-45 -68.5l-21 -24q-8 -10 -6.5 -21t11.5 -18q4 -2 10.5 -6t24 -19t32 -33.5t30 -51t23 -69t5.5 -90t-18 -112.5q-22 -81 -65.5 -137.5t-90 -79t-90.5 -33.5t-72 -10l-28 2q-13 1 -21.5 -7.5t-8.5 -21.5v-137q0 -13 -8.5 -21.5 t-21.5 -8.5h-240v167q0 13 -8.5 21.5t-21.5 8.5h-325q-13 0 -21.5 8.5t-8.5 21.5v175q0 13 8.5 21.5t21.5 8.5h62q13 0 21.5 8.5t8.5 21.5v768q0 13 -8.5 21.5t-21.5 8.5h-62q-13 0 -21.5 8.5t-8.5 21.5v158q0 13 8.5 21.5t21.5 8.5h325q13 0 21.5 8.5t8.5 21.5v164 q0 13 8.5 21.5t21.5 8.5zM1170 1435l-320 -3v-278h320l10 2.5t22 11t28.5 23.5t22.5 41.5t10 62.5t-9.5 62.5t-23.5 41.5t-27.5 23t-22.5 11zM1170 884l-320 -2v-279h320l10 2.5t22 11t28.5 23.5t22.5 41.5t10 62.5t-9.5 62.5t-23.5 41.5t-27.5 23t-22.5 11z" />
<glyph unicode="&#xe018;" d="M690 2047q-179 0 -260.5 -5.5t-157.5 -29.5q-91 -33 -159 -101t-101 -159q-24 -76 -29.5 -157.5t-5.5 -260.5v-620q0 -179 5.5 -260.5t29.5 -157.5q33 -91 101 -159t159 -101q76 -24 157.5 -29.5t260.5 -5.5h620q179 0 260.5 5.5t157.5 29.5q91 33 159 101t101 159 q24 76 29.5 157.5t5.5 260.5v620q0 179 -5.5 260.5t-29.5 157.5q-33 91 -101 159t-159 101q-76 24 -157.5 29.5t-260.5 5.5h-620zM714 1810h50h274h50v-50v-369h168h50v-49h141h50v-50v-37h135h49v-50v-599v-14l-6 -11l-185 -315l-14 -24h-29h-683h-50v50v119l-405 643 l-23 37l33 28l147 124l36 31l33 -35l179 -196v717v50zM813 1710v-156h175v156h-175zM813 1494v-282h175v129v50v103h-175zM1088 1291v-401v-97h118l1 97h-1v401h-118zM1306 1242v-331h1l1 -126l82 -15l5 73l3 47h-1v315v37h-91zM1497 1155v-265h85v265h-85zM813 1152v-237 v-129l-86 95l-234 255l-76 -65l389 -619l7 -12v-14v-84h605l164 278v170h-90l-6 -82l-3 -56l-55 10l-174 31h-216h-50v50v156v253h-175z" />
<glyph unicode="&#xe019;" d="M690 2047q-179 0 -260.5 -5.5t-157.5 -29.5q-91 -33 -159 -101t-101 -159q-24 -76 -29.5 -157.5t-5.5 -260.5v-620q0 -179 5.5 -260.5t29.5 -157.5q33 -91 101 -159t159 -101q76 -24 157.5 -29.5t260.5 -5.5h620q179 0 260.5 5.5t157.5 29.5q91 33 159 101t101 159 q24 76 29.5 157.5t5.5 260.5v620q0 179 -5.5 260.5t-29.5 157.5q-33 91 -101 159t-159 101q-76 24 -157.5 29.5t-260.5 5.5h-620zM508 1774h24h938h24v-25v-1452v-25h-24h-938h-24v25v1452v25zM557 1724v-1402h888v1402h-888zM812 1633h381q11 0 18 -7.5t7 -17.5t-7 -17.5 t-18 -7.5h-381q-10 0 -17.5 7.5t-7.5 17.5t7.5 17.5t17.5 7.5zM640 1504h724v-936h-724v936zM1000 520q29 0 49.5 -20t20.5 -49t-20.5 -49.5t-49.5 -20.5t-49.5 20.5t-20.5 49.5t20.5 49t49.5 20z" />
<glyph unicode="&#xe020;" d="M690 2047q-179 0 -260.5 -5.5t-157.5 -29.5q-91 -33 -159 -101t-101 -159q-24 -76 -29.5 -157.5t-5.5 -260.5v-620q0 -179 5.5 -260.5t29.5 -157.5q33 -91 101 -159t159 -101q76 -24 157.5 -29.5t260.5 -5.5h620q179 0 260.5 5.5t157.5 29.5q91 33 159 101t101 159 q24 76 29.5 157.5t5.5 260.5v620q0 179 -5.5 260.5t-29.5 157.5q-33 91 -101 159t-159 101q-76 24 -157.5 29.5t-260.5 5.5h-620zM1077 1760l-128 -374l247 3l-429 -521l133 373l-249 2zM1909 1412q-71 -60 -95 -93q-34 -47 -77.5 -114.5t-70.5 -111.5l-26 -44 q-31 -52 -76 -91q-16 -14 -42.5 -37t-90.5 -69t-107 -65q-34 -15 -96.5 -24.5t-107.5 -11.5l-45 -2q-34 -91 -39 -145q-4 -39 -4 -109t2 -121l2 -50h-36l-14 192l-95 58q-115 -70 -179 -73q-66 -3 -180 9t-196 25l-81 13q6 10 18 26.5t49.5 60t76 78t95 66.5t109.5 39 t100.5 -4t77 -31.5t51 -42.5t30.5 -38l9 -16q-16 5 -40.5 11.5t-80 16.5t-85.5 8q-33 -2 -86.5 -18.5t-90.5 -31.5l-38 -15q9 1 24.5 3t62 7t81 7t83.5 3.5t68 -3.5q42 -6 101 -31t97 -47l38 -22l31 213q120 189 190 254q41 38 121 94t139 93l60 37q-20 -6 -53.5 -18 t-114 -50.5t-135.5 -78.5q-34 -25 -70 -64t-62.5 -76.5t-48 -71t-32.5 -54.5l-11 -20q8 150 40 237q6 17 26 45.5t37 49.5l16 20q16 21 44 39q161 104 272 134q62 17 176 30.5t196 18.5z" />
<glyph unicode="&#xe021;" d="M690 2047q-179 0 -260.5 -5.5t-157.5 -29.5q-91 -33 -159 -101t-101 -159q-24 -76 -29.5 -157.5t-5.5 -260.5v-620q0 -179 5.5 -260.5t29.5 -157.5q33 -91 101 -159t159 -101q76 -24 157.5 -29.5t260.5 -5.5h620q179 0 260.5 5.5t157.5 29.5q91 33 159 101t101 159 q24 76 29.5 157.5t5.5 260.5v620q0 179 -5.5 260.5t-29.5 157.5q-33 91 -101 159t-159 101q-76 24 -157.5 29.5t-260.5 5.5h-620zM1465 1737q104 0 177 -73.5t73 -177.5t-73 -177t-177 -73q-98 0 -167 63l-510 -249v-15q0 -10 -2 -30l507 -261q73 68 172 68q104 0 177 -73 t73 -177t-73 -177.5t-177 -73.5t-177 73t-74 176l-529 272q-66 -48 -148 -48q-104 0 -177 73.5t-73 177.5t73 177.5t177 73.5q91 0 160 -58l517 253v5q0 104 73.5 177.5t177.5 73.5z" />
<glyph unicode="&#xe022;" d="M690 2047q-179 0 -260.5 -5.5t-157.5 -29.5q-91 -33 -159 -101t-101 -159q-24 -76 -29.5 -157.5t-5.5 -260.5v-620q0 -179 5.5 -260.5t29.5 -157.5q33 -91 101 -159t159 -101q76 -24 157.5 -29.5t260.5 -5.5h620q179 0 260.5 5.5t157.5 29.5q91 33 159 101t101 159 q24 76 29.5 157.5t5.5 260.5v620q0 179 -5.5 260.5t-29.5 157.5q-33 91 -101 159t-159 101q-76 24 -157.5 29.5t-260.5 5.5h-620zM1000 1822q143 0 264 -70.5t191.5 -191.5t70.5 -264q0 -107 -41.5 -204.5t-112 -168t-168 -112.5t-204.5 -42t-204.5 42t-168 112.5t-112 168 t-41.5 204.5q0 143 70.5 264t191.5 191.5t264 70.5zM1056 1769q106 -89 167 -209q56 41 93 93q-110 98 -260 116zM938 1768q-146 -20 -254 -115q38 -54 92 -93q59 118 162 208zM975 1734q-103 -88 -157 -201q77 -43 157 -48v249zM1025 1730v-245q79 5 156 48 q-56 111 -156 197zM648 1617q-115 -126 -124 -296h190q4 102 41 193q-64 45 -107 103zM1352 1617q-42 -56 -108 -103q38 -94 44 -193h188q-9 170 -124 296zM798 1487q-30 -77 -34 -166h211v114q-94 5 -177 52zM1202 1487q-83 -47 -177 -52v-114h213q-6 88 -36 166zM524 1271 q9 -177 131 -305q44 56 106 98q-43 99 -47 207h-190zM764 1271q4 -95 40 -181q80 43 171 48v133h-211zM1025 1271v-133q93 -5 175 -50q36 87 39 183h-214zM1289 1271q-3 -109 -46 -210q57 -40 102 -95q122 128 131 305h-187zM975 1088q-80 -6 -150 -43q57 -109 150 -188v231 zM1025 1088v-239q98 83 154 193q-74 41 -154 46zM783 1018q-55 -39 -91 -86q107 -91 246 -109q-97 85 -155 195zM1221 1015q-55 -106 -148 -190q136 21 235 107q-34 44 -87 83zM386 794q21 0 43.5 -7t34.5 -15l12 -7l135 -105q9 24 28.5 40t34.5 20l16 5h668l254 -146 l-6 -348l-248 151l-415 -172l-615 397q-3 4 -7.5 10.5t-13.5 25.5t-12.5 37.5t1.5 42t22 42.5q26 29 68 29zM803 526l79 -55l24 55h-103z" />
<glyph unicode="&#xe023;" d="M690 2047q-179 0 -260.5 -5.5t-157.5 -29.5q-91 -33 -159 -101t-101 -159q-24 -76 -29.5 -157.5t-5.5 -260.5v-620q0 -179 5.5 -260.5t29.5 -157.5q33 -91 101 -159t159 -101q76 -24 157.5 -29.5t260.5 -5.5h620q179 0 260.5 5.5t157.5 29.5q91 33 159 101t101 159 q24 76 29.5 157.5t5.5 260.5v620q0 179 -5.5 260.5t-29.5 157.5q-33 91 -101 159t-159 101q-76 24 -157.5 29.5t-260.5 5.5h-620zM1745 1763q-2 -15 -6 -41t-18 -99.5t-31 -138.5t-45.5 -140t-60.5 -123q-51 -77 -182.5 -199t-237.5 -206l-106 -83l5 -243l-204 -151l-51 208 l-285 259l-5 34l-213 51l151 193l254 -10q12 16 32 42.5t79.5 100t115 136.5t125.5 131t124 104q68 45 208 89t246 65zM500 726l-24 -65q-11 -10 -27 -26.5t-45.5 -56t-34.5 -64.5q-4 -18 -7 -52t-4 -59l-1 -25q80 2 119 11q26 6 74 43t84 71l35 34h51q-20 -22 -52 -54.5 t-101 -92.5t-102 -72q-27 -10 -78 -18.5t-89 -12.5l-37 -4q4 164 27 231q11 33 64 86t100 90z" />
<glyph unicode="&#xe024;" d="M690 2047q-179 0 -260.5 -5.5t-157.5 -29.5q-91 -33 -159 -101t-101 -159q-24 -76 -29.5 -157.5t-5.5 -260.5v-620q0 -179 5.5 -260.5t29.5 -157.5q33 -91 101 -159t159 -101q76 -24 157.5 -29.5t260.5 -5.5h620q179 0 260.5 5.5t157.5 29.5q91 33 159 101t101 159 q24 76 29.5 157.5t5.5 260.5v620q0 179 -5.5 260.5t-29.5 157.5q-33 91 -101 159t-159 101q-76 24 -157.5 29.5t-260.5 5.5h-620zM1626 1983q33 0 58 -29q17 -19 20 -38.5t-2 -29.5l-5 -11q-13 -33 -40 -50q-53 -33 -87 -66q-13 -13 -27.5 -32t-22.5 -31l-8 -12 q-21 -33 -27 -61q-3 -8 -6 -24.5t-8.5 -79.5t2.5 -146q5 -97 3.5 -189t-6.5 -158l-5 -67q-2 -34 -11 -67q-29 -128 -79 -191q-23 -29 -62 -59.5t-66 -46.5l-27 -16q-28 -17 -62 -25q-8 -2 -21.5 -5t-57 -8t-82.5 1q-40 4 -98 25t-96 39l-38 19l-2 191q4 -3 11 -7.5t30 -18 t45.5 -23.5t57 -23.5t64 -19t67 -9t66.5 6.5q22 5 23 6l-290 540l75 54l291 -547q29 27 49.5 63.5t25.5 59.5l6 23q10 38 12 67q2 18 4 50.5t5 135.5t-2 197q-4 98 5 181t20 117l10 34q34 94 102 163q30 31 56.5 53.5t37.5 29.5l11 7q28 21 61 24q8 3 20 3zM1648 1767 l311 -557l-76 -61l-286 546zM1530 1628l184 -351l-29 -130l-176 318zM971 1539q32 0 49 -2q40 -4 98 -24.5t96 -39.5l38 -19l2 -190q-4 3 -11 7t-30 17.5t-45.5 23.5t-57 24t-64 19t-67 8.5t-66.5 -6.5q-98 -23 -151 -122l262 -499l-147 81l-154 291q-2 -8 -2 -13 q-2 -19 -4 -51.5t-5 -137.5t2 -198q4 -98 -4.5 -181t-19.5 -117l-10 -34q-35 -94 -103 -163q-30 -31 -57 -54t-39 -31l-12 -7q-29 -19 -54 -22q-5 -2 -13.5 -3t-30.5 5t-39 25t-20 39.5t2 31.5l6 11q11 27 37 44q56 35 90 68q13 13 28 32.5t23 32.5l9 13q17 26 24 55 q3 8 6.5 25t9 81t-2.5 147q-5 97 -3.5 190t6.5 160l5 68q2 31 9 59q30 132 80 195q23 29 63 60t68 48l28 16q26 15 55 22q49 14 116 15zM1099 1335l177 -324l-26 -152l-238 464zM747 1204q-11 -29 -14 -41zM114 898l295 -527l-76 -61l-306 566zM237 860l136 -72l128 -244 l-29 -130z" />
<glyph unicode="&#xe025;" d="M690 2047q-179 0 -260.5 -5.5t-157.5 -29.5q-91 -33 -159 -101t-101 -159q-24 -76 -29.5 -157.5t-5.5 -260.5v-620q0 -179 5.5 -260.5t29.5 -157.5q33 -91 101 -159t159 -101q76 -24 157.5 -29.5t260.5 -5.5h620q179 0 260.5 5.5t157.5 29.5q91 33 159 101t101 159 q24 76 29.5 157.5t5.5 260.5v620q0 179 -5.5 260.5t-29.5 157.5q-33 91 -101 159t-159 101q-76 24 -157.5 29.5t-260.5 5.5h-620zM1330 1481h489v-535l-177 193l-537 -537l-56 -57l-57 57l-331 332l-424 -424l-113 113l480 480l57 57l56 -57l332 -332l485 486z" />
<glyph unicode="&#xe026;" d="M690 2047q-179 0 -260.5 -5.5t-157.5 -29.5q-91 -33 -159 -101t-101 -159q-24 -76 -29.5 -157.5t-5.5 -260.5v-620q0 -179 5.5 -260.5t29.5 -157.5q33 -91 101 -159t159 -101q76 -24 157.5 -29.5t260.5 -5.5h620q179 0 260.5 5.5t157.5 29.5q91 33 159 101t101 159 q24 76 29.5 157.5t5.5 260.5v620q0 179 -5.5 260.5t-29.5 157.5q-33 91 -101 159t-159 101q-76 24 -157.5 29.5t-260.5 5.5h-620zM1009 1493q95 0 193 -26t179 -67t156.5 -91t132 -100t99.5 -91t65 -67l22 -26q-7 -10 -20.5 -27t-58.5 -65.5t-94 -93t-126.5 -99t-157 -93.5 t-183 -65.5t-207.5 -26.5t-208 26t-187 67.5t-159 91.5t-131.5 100t-97 91.5t-62.5 67.5l-20 26q8 10 23.5 26.5t66 65.5t104.5 93t135 98t161 93t180 65.5t195 26.5zM1012 1414l-337 -196v-392l337 -195l336 195v392zM1000 1162l131 -95l-50 -155h-162l-50 155z" />
<glyph unicode="&#xe027;" d="M690 2047q-179 0 -260.5 -5.5t-157.5 -29.5q-91 -33 -159 -101t-101 -159q-24 -76 -29.5 -157.5t-5.5 -260.5v-620q0 -179 5.5 -260.5t29.5 -157.5q33 -91 101 -159t159 -101q76 -24 157.5 -29.5t260.5 -5.5h620q179 0 260.5 5.5t157.5 29.5q91 33 159 101t101 159 q24 76 29.5 157.5t5.5 260.5v620q0 179 -5.5 260.5t-29.5 157.5q-33 91 -101 159t-159 101q-76 24 -157.5 29.5t-260.5 5.5h-620zM817 1895h310q10 0 18 -8.5t9 -20.5l33 -403h-430l34 403q1 12 8.5 20.5t17.5 8.5zM644 1443h666l30 -30v-285h60v-218h-60v-287l-30 -30h-666 l-30 30v335h-12l-10 10v101l10 10h12v18h-12l-10 10v102l10 10h12v194zM674 1383v-730h606v730h-606zM1093 1292l-77 -226l148 2l-258 -314l80 225l-150 1zM612 1199v-82h2v82h-2zM612 1059v-81h2v81h-2zM762 585h430l-34 -403q-1 -12 -8.5 -20.5t-17.5 -8.5h-310 q-10 0 -17.5 8.5t-8.5 20.5z" />
</font>
</defs>
</svg>
