<?xml version="1.0" encoding="UTF-8" standalone="no"?>
<svg width="1024px" height="1024px" viewBox="0 0 1024 1024" version="1.1" xmlns="http://www.w3.org/2000/svg" xmlns:xlink="http://www.w3.org/1999/xlink" xmlns:sketch="http://www.bohemiancoding.com/sketch/ns">
    <!-- Generator: Sketch 3.3.3 (12081) - http://www.bohemiancoding.com/sketch -->
    <title>Biotechnology</title>
    <desc>Created with Sketch.</desc>
    <defs></defs>
    <g id="Slushicons" stroke="none" stroke-width="1" fill="none" fill-rule="evenodd" sketch:type="MSPage">
        <g id="Biotechnology" sketch:type="MSArtboardGroup">
            <path d="M357.009067,0 L666.990933,0 C769.792,0 821.179733,0 876.5184,17.4933333 C936.9344,39.4837333 984.516267,87.0656 1006.50667,147.4816 C1024,202.811733 1024,254.216533 1024,357.009067 L1024,666.990933 C1024,769.792 1024,821.179733 1006.50667,876.5184 C984.516267,936.9344 936.9344,984.516267 876.5184,1006.49813 C821.179733,1024 769.792,1024 666.990933,1024 L357.009067,1024 C254.208,1024 202.811733,1024 147.4816,1006.49813 C87.0656,984.516267 39.4837333,936.9344 17.4933333,876.5184 C0,821.179733 0,769.792 0,666.990933 L0,357.009067 C0,254.216533 0,202.811733 17.4933333,147.4816 C39.4837333,87.0656 87.0656,39.4837333 147.4816,17.4933333 C202.811733,0 254.208,0 357.009067,0 L357.009067,0" id="Path" stroke="#979797" fill="#D8D8D8" sketch:type="MSShapeGroup"></path>
            <g id="dna" sketch:type="MSLayerGroup" transform="translate(508.769810, 502.159456) rotate(17.000000) translate(-508.769810, -502.159456) translate(70.269810, -41.840544)" fill="#FFFFFF">
                <path d="M379.029224,303.958822 C423.916236,294.943169 502.30394,309.683117 502.30394,309.683117 L531.152251,400.604669 C531.152251,400.604669 420.829475,365.880838 353.997109,405.617319 C287.164742,445.3538 296.860332,529.543169 296.860332,529.543169 C297.172617,537.810582 298.878,551.079032 300.722689,559.1405 C300.722689,559.1405 318.027898,641.011715 353.997109,745.312194 C389.966319,849.612673 385.909942,909.559874 385.909942,909.559874 C385.909942,909.559874 383.276855,959.51291 360.65099,1002.42066 C338.025125,1045.32841 322.509404,1062.54473 322.509404,1062.54473 C317.376466,1069.0426 307.318875,1077.51177 299.713248,1080.7996 C299.713248,1080.7996 280.920056,1094.78774 256.443914,1080.17233 C231.967772,1065.55692 238.644599,1042.41577 238.644599,1042.41577 C239.307448,1034.1765 244.210627,1022.40034 249.532875,1016.04694 C249.532875,1016.04694 271.706567,990.971125 283.006066,970.312124 C293.208626,951.658666 300.248352,923.995071 300.248352,923.995071 C302.514165,916.022732 304.1976,902.840187 303.635365,894.575646 C303.635365,894.575646 305.65417,856.893692 272.749481,771.371747 C239.844793,685.849801 215.253532,570.076175 215.253532,570.076175 C213.46004,561.990848 211.620216,548.7293 211.269039,540.463433 C211.269039,540.463433 206.162046,473.080682 221.00399,435.515305 C236.432165,396.46616 278.743107,352.951461 278.743107,352.951461 C284.347346,346.854394 294.628313,338.433831 301.822641,334.331332 C301.822641,334.331332 334.142211,312.974475 379.029224,303.958822 Z" id="Path-30" sketch:type="MSShapeGroup"></path>
                <path d="M513.54805,783.532264 C468.730542,792.547917 390.464217,777.807969 390.464217,777.807969 L361.660575,686.886417 C361.660575,686.886417 471.812523,721.610248 538.541405,681.873767 C605.270286,642.137286 595.573447,560.033437 595.573447,560.033437 C595.270627,550.614223 593.372636,535.513417 591.260829,526.317656 C591.260829,526.317656 574.454919,446.479372 538.541405,342.178892 C502.62789,237.878413 506.677986,177.931212 506.677986,177.931212 C506.677986,177.931212 509.306996,127.978176 531.897826,85.0704268 C554.488657,42.1626774 568.733316,26.6135569 568.733316,26.6135569 C574.547025,19.1949231 585.988018,9.57344428 594.693594,5.98004446 C594.693594,5.98004446 611.505302,-7.29665446 635.943545,7.318756 C660.381788,21.9341665 653.657568,42.9892871 653.657568,42.9892871 C653.027629,52.380639 647.553723,65.8059621 641.516318,73.0534235 C641.516318,73.0534235 620.704525,96.5199608 609.422523,117.178962 C599.23576,135.83242 592.799756,161.51617 592.799756,161.51617 C590.210045,170.581947 588.310256,185.578393 589.012058,194.986659 C589.012058,194.986659 586.809488,230.597394 619.663225,316.11934 C652.516963,401.641285 676.608855,515.38152 676.608855,515.38152 C678.654334,524.589858 680.743219,539.690989 681.119144,549.116155 C681.119144,549.116155 686.147555,614.410404 671.328593,651.975781 C655.924307,691.024926 615.058107,732.988032 615.058107,732.988032 C608.70082,739.94202 597.01264,749.529571 588.811692,754.164994 C588.811692,754.164994 558.365558,774.516611 513.54805,783.532264 L513.54805,783.532264 Z" id="Path-30-Copy" sketch:type="MSShapeGroup"></path>
                <path d="M229.474728,991.752303 L0.347257327,765.7961 L38.851703,742.560889 L257.024288,951.370894" id="Path-31" sketch:type="MSShapeGroup"></path>
                <path d="M848.906281,363.536507 L631.845641,144.074062 L645.669347,102.055869 L876.45584,323.155098 L848.906281,363.536507 Z" id="Path-31-Copy" sketch:type="MSShapeGroup"></path>
                <path d="M280.935562,921.833176 L103.193312,742.560889 L178.712197,757.269703 L275.92736,855.134242 L280.935562,921.833176 Z" id="Path-32" sketch:type="MSShapeGroup"></path>
                <path d="M754.150741,393.454508 L623.359274,266.977387 L609.731271,185.912119 L749.142539,326.755575 L754.150741,393.454508 Z" id="Path-32-Copy" sketch:type="MSShapeGroup"></path>
                <path d="M295.977959,549.531613 L415.992451,669.399329 L498.089605,687.039231 L297.556922,484.122537 L295.977959,549.531613 Z" id="Path-35" sketch:type="MSShapeGroup"></path>
                <path d="M330.897493,459.383975 L549.964082,676.91608 L581.347943,645.532218 L358.593829,422.916614 L330.897493,459.383975 Z" id="Path-36" sketch:type="MSShapeGroup"></path>
                <path d="M406.385243,407.398303 L588.481871,594.792239 L578.621139,518.090245 L446.473099,388.89998 L406.385243,407.398303 Z" id="Path-37" sketch:type="MSShapeGroup"></path>
            </g>
        </g>
        <g id="Artboard-28" sketch:type="MSArtboardGroup" transform="translate(-1391.000000, -490.000000)"></g>
    </g>
</svg>