<?xml version="1.0" encoding="UTF-8" standalone="no"?>
<svg width="1024px" height="1024px" viewBox="0 0 1024 1024" version="1.1" xmlns="http://www.w3.org/2000/svg" xmlns:xlink="http://www.w3.org/1999/xlink" xmlns:sketch="http://www.bohemiancoding.com/sketch/ns">
    <!-- Generator: Sketch 3.3.3 (12081) - http://www.bohemiancoding.com/sketch -->
    <title>Bitcoin &amp; cryptocurrencies</title>
    <desc>Created with Sketch.</desc>
    <defs></defs>
    <g id="Slushicons" stroke="none" stroke-width="1" fill="none" fill-rule="evenodd" sketch:type="MSPage">
        <g id="Bitcoin-&amp;-cryptocurrencies" sketch:type="MSArtboardGroup">
            <path d="M666.990933,0 C769.792,0 821.179733,0 876.5184,17.4933333 C936.9344,39.4837333 984.516267,87.0656 1006.50667,147.4816 C1024,202.811733 1024,254.216533 1024,357.009067 L1024,666.990933 C1024,769.792 1024,821.179733 1006.50667,876.5184 C984.516267,936.9344 936.9344,984.516267 876.5184,1006.49813 C821.179733,1024 769.792,1024 666.990933,1024 L357.009067,1024 C254.208,1024 202.811733,1024 147.4816,1006.49813 C87.0656,984.516267 39.4837333,936.9344 17.4933333,876.5184 C0,821.179733 0,769.792 0,666.990933 L0,357.009067 C0,254.216533 0,202.811733 17.4933333,147.4816 C39.4837333,87.0656 87.0656,39.4837333 147.4816,17.4933333 C202.811733,0 254.208,0 357.009067,0 L666.990933,0 Z" id="Path" stroke="#979797" fill="#D8D8D8" sketch:type="MSShapeGroup"></path>
            <path d="M249.361196,213.756842 C249.361196,205.472835 256.078614,198.757321 264.36222,198.757321 L427.066678,198.757324 C435.351515,198.757325 442.067702,192.032788 442.067702,183.761558 L442.067702,102.239652 C442.067702,93.9577186 448.788635,87.243885 457.070461,87.243885 L562.128954,87.243885 C570.41475,87.243885 577.131714,93.9684219 577.131714,102.239652 L577.131714,183.761558 C577.131714,192.043491 583.775651,197.773037 592.033863,197.114312 C592.033863,197.114312 679.500055,176.996373 747.475338,283.611196 C815.450621,390.22602 708.882387,501.150854 708.882387,501.150854 C703.484954,507.418823 704.875348,515.928111 711.671731,520.655293 C711.671731,520.655293 803.623625,565.716841 765.176178,710.832578 C726.72873,855.948316 592.096567,840.1991 592.096567,840.1991 C583.831707,839.899681 577.131715,846.380389 577.131716,854.66289 L577.131726,922.750178 C577.131727,931.037728 570.410795,937.756114 562.128968,937.756112 C562.128968,937.756112 442.067713,937.756084 442.067708,937.756115 C442.067703,937.756146 442.067707,854.662863 442.067707,854.662863 C442.067708,846.375307 435.35029,839.656916 427.066684,839.656916 L264.36222,839.656926 C256.077383,839.656927 249.361196,832.938782 249.361196,824.652787 L249.361196,736.782902 C249.361196,728.496344 256.070544,721.778762 264.357229,721.778762 L295.426938,721.778762 C303.709019,721.778762 310.422972,715.072385 310.422972,706.78352 L310.422972,323.174502 C310.422972,314.892859 303.713623,308.179261 295.426938,308.179261 L264.357229,308.179261 C256.075149,308.179261 249.361196,301.458129 249.361196,293.17974 L249.361196,213.756842 Z M436.790593,307.859836 L436.790593,446.901335 L597.008538,446.901335 C597.008538,446.901335 643.360393,439.770021 643.360393,376.68128 C643.360393,313.592538 597.008538,306.461222 597.008538,306.461222 L436.790593,307.859836 Z M436.790593,583.227994 L436.790593,722.269494 L597.008538,722.269494 C597.008538,722.269494 643.360393,715.13818 643.360393,652.049438 C643.360393,588.960697 597.008538,581.829381 597.008538,581.829381 L436.790593,583.227994 Z" id="Path-37" fill="#FFFFFF" sketch:type="MSShapeGroup"></path>
        </g>
        <g id="Artboard-28" sketch:type="MSArtboardGroup" transform="translate(-2515.000000, -490.000000)"></g>
    </g>
</svg>