<?xml version="1.0" encoding="UTF-8" standalone="no"?>
<svg width="1024px" height="1024px" viewBox="0 0 1024 1024" version="1.1" xmlns="http://www.w3.org/2000/svg" xmlns:xlink="http://www.w3.org/1999/xlink" xmlns:sketch="http://www.bohemiancoding.com/sketch/ns">
    <!-- Generator: Sketch 3.3.3 (12081) - http://www.bohemiancoding.com/sketch -->
    <title>Cleantech</title>
    <desc>Created with Sketch.</desc>
    <defs></defs>
    <g id="Slushicons" stroke="none" stroke-width="1" fill="none" fill-rule="evenodd" sketch:type="MSPage">
        <g id="Cleantech" sketch:type="MSArtboardGroup">
            <path d="M357.009067,0 L666.990933,0 C769.792,0 821.179733,0 876.5184,17.4933333 C936.9344,39.4837333 984.516267,87.0656 1006.50667,147.4816 C1024,202.811733 1024,254.216533 1024,357.009067 L1024,666.990933 C1024,769.792 1024,821.179733 1006.50667,876.5184 C984.516267,936.9344 936.9344,984.516267 876.5184,1006.49813 C821.179733,1024 769.792,1024 666.990933,1024 L357.009067,1024 C254.208,1024 202.811733,1024 147.4816,1006.49813 C87.0656,984.516267 39.4837333,936.9344 17.4933333,876.5184 C0,821.179733 0,769.792 0,666.990933 L0,357.009067 C0,254.216533 0,202.811733 17.4933333,147.4816 C39.4837333,87.0656 87.0656,39.4837333 147.4816,17.4933333 C202.811733,0 254.208,0 357.009067,0 L357.009067,0" id="Path" stroke="#979797" fill="#D8D8D8" sketch:type="MSShapeGroup"></path>
            <path d="M395.550237,590.220527 L610,329.219261 L486.353197,331.051065 L550.502373,143.661582 L337.251515,402.486295 L461.870821,403.18094 L395.550237,590.220527 Z" id="Path-54-Copy" fill="#FFFFFF" sketch:type="MSShapeGroup"></path>
            <path d="M511.889841,862.441055 L530.095765,862.44105 C530.095765,862.44105 526.061707,765.909439 530.095765,722.161307 C532.605177,694.947499 549.726177,649.555229 549.726177,649.555229 C549.726177,649.555229 635.750005,647.520583 674.210981,630.848511 C722.874905,609.753662 794.235975,545.047258 794.235975,545.047258 C806.743845,534.184622 823.777089,513.856506 832.338018,499.676234 C832.338018,499.676234 881.190134,417.045436 919.413842,364.291292 C931.276458,347.919198 967.14245,318 967.14245,318 C967.14245,318 809.095045,326.221912 738.98745,345.292788 C683.480011,360.392086 602.995136,412.555322 602.995136,412.555322 C595.98234,416.948858 586.029052,425.686652 580.816643,432.131656 C580.816643,432.131656 548.5383,470.342973 541.482592,489.607931 C525.607772,532.952658 521.505763,608.339575 521.505763,608.339575 C521.505763,608.339575 572.366896,510.621919 633.706776,465.157354 C695.046655,419.692788 785.294952,391.292294 785.294952,391.292294 C785.294952,391.292294 671.483973,460.89115 625.293616,503.500182 C590.21318,535.860689 530.095765,630.848515 530.095765,630.848515 L514.399195,737.306638 C514.399195,737.306638 443.66004,693.976773 396.447019,686.936249 C351.130886,680.178594 236.811732,695.912102 236.811732,695.912102 C236.811732,695.912102 307.466805,665.889093 344.314606,663.339415 C377.751581,661.025749 447.66606,681.322072 447.66606,681.322072 C447.66606,681.322072 409.204547,602.177849 313.390704,614.994815 C217.576861,627.811781 139,750.259192 139,750.259192 C139,750.259192 293.540635,776.992712 367.63141,773.980305 C399.730888,772.675193 457.57076,737.306634 457.57076,737.306634 L505.245333,766.026986 L511.889841,862.441055 Z" id="Path-68" fill="#FFFFFF" sketch:type="MSShapeGroup"></path>
        </g>
        <g id="Artboard-28" sketch:type="MSArtboardGroup" transform="translate(-3639.000000, -490.000000)"></g>
    </g>
</svg>