<?xml version="1.0" encoding="UTF-8" standalone="no"?>
<svg width="1024px" height="1024px" viewBox="0 0 1024 1024" version="1.1" xmlns="http://www.w3.org/2000/svg" xmlns:xlink="http://www.w3.org/1999/xlink" xmlns:sketch="http://www.bohemiancoding.com/sketch/ns">
    <!-- Generator: Sketch 3.3.3 (12081) - http://www.bohemiancoding.com/sketch -->
    <title>Communications &amp; media</title>
    <desc>Created with Sketch.</desc>
    <defs></defs>
    <g id="Slushicons" stroke="none" stroke-width="1" fill="none" fill-rule="evenodd" sketch:type="MSPage">
        <g id="Communications-&amp;-media" sketch:type="MSArtboardGroup">
            <path d="M357.009067,0 L666.990933,0 C769.792,0 821.179733,0 876.5184,17.4933333 C936.9344,39.4837333 984.516267,87.0656 1006.50667,147.4816 C1024,202.811733 1024,254.216533 1024,357.009067 L1024,666.990933 C1024,769.792 1024,821.179733 1006.50667,876.5184 C984.516267,936.9344 936.9344,984.516267 876.5184,1006.49813 C821.179733,1024 769.792,1024 666.990933,1024 L357.009067,1024 C254.208,1024 202.811733,1024 147.4816,1006.49813 C87.0656,984.516267 39.4837333,936.9344 17.4933333,876.5184 C0,821.179733 0,769.792 0,666.990933 L0,357.009067 C0,254.216533 0,202.811733 17.4933333,147.4816 C39.4837333,87.0656 87.0656,39.4837333 147.4816,17.4933333 C202.811733,0 254.208,0 357.009067,0 L357.009067,0" id="Path" stroke="#979797" fill="#D8D8D8" sketch:type="MSShapeGroup"></path>
            <path d="M155.103166,455.944275 C155.103166,376.641021 187.804734,374.220934 187.804734,374.220934 C187.804734,374.220934 406.551662,385.505908 506.083696,356.92221 C618.737631,324.570153 824.362657,196.314972 824.362657,196.314972 L824.362657,715.57358 C824.362657,715.57358 622.894926,590.034926 506.083696,556.163269 C410.708957,528.507533 187.804734,541.31958 187.804734,541.31958 C187.804734,541.31958 155.103166,535.247528 155.103166,455.944275 Z" id="Path-82" stroke="#FFFFFF" stroke-width="60" stroke-linejoin="round" sketch:type="MSShapeGroup"></path>
            <path d="M251.958518,563.048521 C251.958518,563.048521 246.706045,655.411278 251.958518,701.901322 C256.307708,740.396331 283.681573,808.785722 283.681573,808.785722 C283.681573,808.785722 319.558946,835.410905 381.36255,835.410905 C443.166154,835.410905 461.076433,794.780747 461.076433,794.780747 C461.076433,794.780747 405.733659,766.159226 405.73365,679.185826 C405.73364,592.212425 428.597663,549.244493 428.597663,549.244493 L251.958518,563.048521 Z" id="Path-83" fill="#FFFFFF" sketch:type="MSShapeGroup"></path>
            <ellipse id="Oval-11" fill="#FFFFFF" sketch:type="MSShapeGroup" cx="856.5" cy="454" rx="40.5" ry="58"></ellipse>
            <path d="M497,373.845257 L497,535.404921" id="Path-84" stroke="#FFFFFF" stroke-width="60" sketch:type="MSShapeGroup"></path>
        </g>
        <g id="Artboard-28" sketch:type="MSArtboardGroup" transform="translate(-4763.000000, -490.000000)"></g>
    </g>
</svg>