<?xml version="1.0" encoding="UTF-8" standalone="no"?>
<svg width="1024px" height="1024px" viewBox="0 0 1024 1024" version="1.1" xmlns="http://www.w3.org/2000/svg" xmlns:xlink="http://www.w3.org/1999/xlink" xmlns:sketch="http://www.bohemiancoding.com/sketch/ns">
    <!-- Generator: Sketch 3.3.3 (12081) - http://www.bohemiancoding.com/sketch -->
    <title>Consumer electronics</title>
    <desc>Created with Sketch.</desc>
    <defs></defs>
    <g id="Slushicons" stroke="none" stroke-width="1" fill="none" fill-rule="evenodd" sketch:type="MSPage">
        <g id="Consumer-electronics" sketch:type="MSArtboardGroup">
            <path d="M357.009067,10 L666.990933,10 C769.792,10 821.179733,10 876.5184,27.4933333 C936.9344,49.4837333 984.516267,97.0656 1006.50667,157.4816 C1024,212.811733 1024,264.216533 1024,367.009067 L1024,676.990933 C1024,779.792 1024,831.179733 1006.50667,886.5184 C984.516267,946.9344 936.9344,994.516267 876.5184,1016.49813 C821.179733,1034 769.792,1034 666.990933,1034 L357.009067,1034 C254.208,1034 202.811733,1034 147.4816,1016.49813 C87.0656,994.516267 39.4837333,946.9344 17.4933333,886.5184 C0,831.179733 0,779.792 0,676.990933 L0,367.009067 C0,264.216533 0,212.811733 17.4933333,157.4816 C39.4837333,97.0656 87.0656,49.4837333 147.4816,27.4933333 C202.811733,10 254.208,10 357.009067,10 L357.009067,10" id="Path" stroke="#979797" fill="#D8D8D8" sketch:type="MSShapeGroup"></path>
            <g id="Rectangle-1-+-Rectangle-2-+-Rectangle-1-+-Rectangle-2-Copy" sketch:type="MSLayerGroup" transform="translate(123.000000, 164.000000)">
                <g id="Rectangle-1-+-Rectangle-2" transform="translate(493.000000, 412.000000) rotate(-45.000000) translate(-493.000000, -412.000000) translate(193.000000, 309.000000)" stroke="#FFFFFF" stroke-width="30" sketch:type="MSShapeGroup">
                    <rect id="Rectangle-1" stroke-linecap="round" stroke-linejoin="round" x="0" y="0" width="540" height="206"></rect>
                    <rect id="Rectangle-2" x="517" y="46" width="83" height="114"></rect>
                </g>
                <g id="Rectangle-1-+-Rectangle-2-Copy" transform="translate(285.250000, 285.367188) rotate(-225.000000) translate(-285.250000, -285.367188) translate(-14.750000, 182.367188)" sketch:type="MSShapeGroup">
                    <rect id="Rectangle-1" fill="#FFFFFF" x="1.13686838e-13" y="-1.13686838e-13" width="540" height="206"></rect>
                    <rect id="Rectangle-2" stroke="#FFFFFF" stroke-width="30" x="517" y="46" width="83" height="114"></rect>
                </g>
            </g>
            <path d="M703.603539,463.880417 L703.603539,431.265923 L730.65135,431.265923 L730.65135,463.992976 L764.50792,463.992976 L764.50792,490.264246 L731.273661,490.264246 L731.273661,522.900215 L703.908978,522.900215 L703.908978,491.0361 L672.200551,491.0361 L672.200551,463.992977 L703.603539,463.880417 Z" id="Path-48" fill="#FFFFFF" sketch:type="MSShapeGroup" transform="translate(718.354236, 477.083069) rotate(-45.000000) translate(-718.354236, -477.083069) "></path>
            <path d="M298.603539,528.913615 L298.603539,496.299121 L325.65135,496.299121 L325.65135,529.026173 L359.50792,529.026173 L359.50792,555.297444 L326.273661,555.297444 L326.273661,587.933412 L298.908978,587.933412 L298.908978,556.069297 L267.200551,556.069297 L267.200551,529.026175 L298.603539,528.913615 Z" id="Path-48-Copy" fill="#D8D8D8" sketch:type="MSShapeGroup" transform="translate(313.354236, 542.116267) rotate(-45.000000) translate(-313.354236, -542.116267) "></path>
        </g>
        <g id="Artboard-28" sketch:type="MSArtboardGroup" transform="translate(-267.000000, -1664.000000)"></g>
    </g>
</svg>