<?xml version="1.0" encoding="UTF-8" standalone="no"?>
<svg width="1024px" height="1024px" viewBox="0 0 1024 1024" version="1.1" xmlns="http://www.w3.org/2000/svg" xmlns:xlink="http://www.w3.org/1999/xlink" xmlns:sketch="http://www.bohemiancoding.com/sketch/ns">
    <!-- Generator: Sketch 3.3.3 (12081) - http://www.bohemiancoding.com/sketch -->
    <title>Cyber security</title>
    <desc>Created with Sketch.</desc>
    <defs></defs>
    <g id="Slushicons" stroke="none" stroke-width="1" fill="none" fill-rule="evenodd" sketch:type="MSPage">
        <g id="Cyber-security" sketch:type="MSArtboardGroup">
            <path d="M357.009067,0 L666.990933,0 C769.792,0 821.179733,0 876.5184,17.4933333 C936.9344,39.4837333 984.516267,87.0656 1006.50667,147.4816 C1024,202.811733 1024,254.216533 1024,357.009067 L1024,666.990933 C1024,769.792 1024,821.179733 1006.50667,876.5184 C984.516267,936.9344 936.9344,984.516267 876.5184,1006.49813 C821.179733,1024 769.792,1024 666.990933,1024 L357.009067,1024 C254.208,1024 202.811733,1024 147.4816,1006.49813 C87.0656,984.516267 39.4837333,936.9344 17.4933333,876.5184 C0,821.179733 0,769.792 0,666.990933 L0,357.009067 C0,254.216533 0,202.811733 17.4933333,147.4816 C39.4837333,87.0656 87.0656,39.4837333 147.4816,17.4933333 C202.811733,0 254.208,0 357.009067,0 L357.009067,0" id="Path" stroke="#979797" fill="#D8D8D8" sketch:type="MSShapeGroup"></path>
            <path d="M501.675026,741.553277 C754.897583,741.553277 984.969805,720.519424 974.690691,644.023147 C964.411577,567.52687 578.139156,411.039155 324.916598,411.039155 C71.6940402,411.039155 23.0814436,535.151724 39.6901109,604.171922 C56.2987783,673.19212 248.452468,741.553277 501.675026,741.553277 Z" id="Oval-1" fill="#FFFFFF" sketch:type="MSShapeGroup" transform="translate(505.890903, 576.296216) rotate(-17.000000) translate(-505.890903, -576.296216) "></path>
            <path d="M321.808594,342.820313 L636.865233,261.374618 C652.904144,257.228378 679.102146,256.367193 695.386298,259.45228 L696.982842,259.754751 C713.264223,262.839312 729.880181,278.328312 734.096553,294.353939 L775.685547,452.425781 L222.675781,559.890625 L269.371094,342.820312 L321.808594,342.820313 Z" id="Path-44" fill="#FFFFFF" sketch:type="MSShapeGroup"></path>
            <path d="M513.492188,500.609375 C274.316406,519.058594 239.585938,487.453125 239.585938,487.453125 L231.929688,597.289062 C231.929688,597.289062 332.847656,628.46875 513.492188,619.460938 C694.136719,610.453125 795.054688,543.351562 795.054688,543.351562 L776.171875,449.617188 C776.171875,449.617188 752.667969,482.160156 513.492188,500.609375 Z" id="Path-42" fill="#D8D8D8" sketch:type="MSShapeGroup"></path>
            <path d="M237.953125,488.113281 L259.613871,342.359246 C262.049207,325.971993 274.952188,304.887175 288.446174,295.25593 L342.518669,256.662038 C356.006975,247.034848 380.361082,239.98274 396.8947,240.90957 L570.869141,250.662109 L338.421875,317.097654" id="Path-43" fill="#FFFFFF" sketch:type="MSShapeGroup"></path>
        </g>
        <g id="Artboard-28" sketch:type="MSArtboardGroup" transform="translate(-1391.000000, -1664.000000)"></g>
    </g>
</svg>