<?xml version="1.0" encoding="UTF-8" standalone="no"?>
<svg width="1024px" height="1024px" viewBox="0 0 1024 1024" version="1.1" xmlns="http://www.w3.org/2000/svg" xmlns:xlink="http://www.w3.org/1999/xlink" xmlns:sketch="http://www.bohemiancoding.com/sketch/ns">
    <!-- Generator: Sketch 3.3.3 (12081) - http://www.bohemiancoding.com/sketch -->
    <title>Education</title>
    <desc>Created with Sketch.</desc>
    <defs></defs>
    <g id="Slushicons" stroke="none" stroke-width="1" fill="none" fill-rule="evenodd" sketch:type="MSPage">
        <g id="Education" sketch:type="MSArtboardGroup">
            <path d="M357.009067,0 L666.990933,0 C769.792,0 821.179733,0 876.5184,17.4933333 C936.9344,39.4837333 984.516267,87.0656 1006.50667,147.4816 C1024,202.811733 1024,254.216533 1024,357.009067 L1024,666.990933 C1024,769.792 1024,821.179733 1006.50667,876.5184 C984.516267,936.9344 936.9344,984.516267 876.5184,1006.49813 C821.179733,1024 769.792,1024 666.990933,1024 L357.009067,1024 C254.208,1024 202.811733,1024 147.4816,1006.49813 C87.0656,984.516267 39.4837333,936.9344 17.4933333,876.5184 C0,821.179733 0,769.792 0,666.990933 L0,357.009067 C0,254.216533 0,202.811733 17.4933333,147.4816 C39.4837333,87.0656 87.0656,39.4837333 147.4816,17.4933333 C202.811733,0 254.208,0 357.009067,0 L357.009067,0" id="Path" stroke="#979797" fill="#D8D8D8" sketch:type="MSShapeGroup"></path>
            <path d="M510.226562,770.5625 C510.226562,770.5625 537.140625,708.187507 638.40625,690.093757 C739.671875,672.000007 814.15625,727.398437 814.15625,727.398437 L814.15625,285.558345 C814.15625,285.558345 725.84375,249.234375 638.40625,249.234375 C550.96875,249.234375 510.226562,313.203124 510.226562,313.203124 L510.226562,770.5625 Z" id="Path-50" stroke="#FFFFFF" stroke-width="50" stroke-linejoin="round" fill="#E9E9E9" sketch:type="MSShapeGroup"></path>
            <path d="M195.070313,772.664063 C195.070313,772.664063 221.984375,710.28907 323.25,692.19532 C424.515625,674.10157 499,729.5 499,729.5 L499,287.659908 C499,287.659908 410.6875,251.335937 323.25,251.335937 C235.8125,251.335937 195.070313,315.304687 195.070313,315.304687 L195.070313,772.664063 Z" id="Path-50-Copy" stroke="#FFFFFF" stroke-width="50" stroke-linejoin="round" fill="#FFFFFF" sketch:type="MSShapeGroup" transform="translate(347.035156, 512.000000) scale(-1, 1) translate(-347.035156, -512.000000) "></path>
            <path d="M512,323.67622 L512,770.5625" id="Path-51" stroke="#FFFFFF" stroke-width="50" sketch:type="MSShapeGroup"></path>
        </g>
        <g id="Artboard-28" sketch:type="MSArtboardGroup" transform="translate(-3639.000000, -1664.000000)"></g>
    </g>
</svg>