<?xml version="1.0" encoding="UTF-8" standalone="no"?>
<svg width="1026px" height="1026px" viewBox="0 0 1026 1026" version="1.1" xmlns="http://www.w3.org/2000/svg" xmlns:xlink="http://www.w3.org/1999/xlink" xmlns:sketch="http://www.bohemiancoding.com/sketch/ns">
    <!-- Generator: Sketch 3.3.3 (12081) - http://www.bohemiancoding.com/sketch -->
    <title>Enterprise software Copy</title>
    <desc>Created with Sketch.</desc>
    <defs></defs>
    <g id="Page-1" stroke="none" stroke-width="1" fill="none" fill-rule="evenodd" sketch:type="MSPage">
        <g id="Enterprise-software" sketch:type="MSLayerGroup" transform="translate(1.000000, 1.000000)" stroke="#979797" fill="#D8D8D8">
            <g id="Slushicons" sketch:type="MSShapeGroup">
                <g id="Analytics,-big-data-&amp;-AI">
                    <path d="M357.009067,0 L666.990933,0 C769.792,0 821.179733,0 876.5184,17.4933333 C936.9344,39.4837333 984.516267,87.0656 1006.50667,147.4816 C1024,202.811733 1024,254.216533 1024,357.009067 L1024,666.990933 C1024,769.792 1024,821.179733 1006.50667,876.5184 C984.516267,936.9344 936.9344,984.516267 876.5184,1006.49813 C821.179733,1024 769.792,1024 666.990933,1024 L357.009067,1024 C254.208,1024 202.811733,1024 147.4816,1006.49813 C87.0656,984.516267 39.4837333,936.9344 17.4933333,876.5184 C0,821.179733 0,769.792 0,666.990933 L0,357.009067 C0,254.216533 0,202.811733 17.4933333,147.4816 C39.4837333,87.0656 87.0656,39.4837333 147.4816,17.4933333 C202.811733,0 254.208,0 357.009067,0 L357.009067,0" id="Path"></path>
                </g>
            </g>
        </g>
        <path d="M149,398.990188 C149,343.767132 193.767906,299 249.00818,299 L776.99182,299 C832.224813,299 877,343.776782 877,398.990188 L877,546.754517 C877,546.754517 771.888123,615.625702 513,615.625702 C254.111877,615.625702 149,546.754517 149,546.754517 L149,398.990188 Z" id="Rectangle-1" fill="#FFFFFF" sketch:type="MSShapeGroup"></path>
        <path d="M161,594.625702 C161,594.625702 226.424438,653.270355 513.5,653.270355 C800.575562,653.270355 866,594.625702 866,594.625702 L866,728.285033 C866,783.516837 821.230105,828.291061 765.996276,828.291061 L261.003724,828.291061 C205.773193,828.291061 161,783.514505 161,728.285033 L161,594.625702 Z" id="Rectangle-2" fill="#FFFFFF" sketch:type="MSShapeGroup"></path>
        <rect id="Rectangle-3" stroke="#D8D8D8" stroke-width="30" fill="#FFFFFF" sketch:type="MSShapeGroup" x="477" y="521" width="73" height="125"></rect>
        <path d="M410.15782,312 L410.15782,305.013346 C410.15782,277.403738 432.538289,255.021729 460.154452,255.021729 L559.694433,255.021729 C587.30681,255.021729 609.691067,277.411345 609.69107,305.018408 L609.69107,311.01015 L662.244476,311.01015 L662.244477,255.113401 C662.244477,227.496646 639.866622,205.108843 612.23574,205.108843 L408.764261,205.108843 C381.145198,205.108843 358.755523,227.503055 358.755523,255.113402 L358.755523,311.010153 L410.15782,312 Z" id="Path-2" fill="#FFFFFF" sketch:type="MSShapeGroup"></path>
    </g>
</svg>