<?xml version="1.0" encoding="UTF-8" standalone="no"?>
<svg width="1024px" height="1024px" viewBox="0 0 1024 1024" version="1.1" xmlns="http://www.w3.org/2000/svg" xmlns:xlink="http://www.w3.org/1999/xlink" xmlns:sketch="http://www.bohemiancoding.com/sketch/ns">
    <!-- Generator: Sketch 3.3.3 (12081) - http://www.bohemiancoding.com/sketch -->
    <title>Enterprise software</title>
    <desc>Created with Sketch.</desc>
    <defs></defs>
    <g id="Slushicons" stroke="none" stroke-width="1" fill="none" fill-rule="evenodd" sketch:type="MSPage">
        <g id="Enterprise-software" sketch:type="MSArtboardGroup">
            <path d="M666.990933,0 C769.792,0 821.179733,0 876.5184,17.4933333 C936.9344,39.4837333 984.516267,87.0656 1006.50667,147.4816 C1024,202.811733 1024,254.216533 1024,357.009067 L1024,666.990933 C1024,769.792 1024,821.179733 1006.50667,876.5184 C984.516267,936.9344 936.9344,984.516267 876.5184,1006.49813 C821.179733,1024 769.792,1024 666.990933,1024 L357.009067,1024 C254.208,1024 202.811733,1024 147.4816,1006.49813 C87.0656,984.516267 39.4837333,936.9344 17.4933333,876.5184 C0,821.179733 0,769.792 0,666.990933 L0,357.009067 C0,254.216533 0,202.811733 17.4933333,147.4816 C39.4837333,87.0656 87.0656,39.4837333 147.4816,17.4933333 C202.811733,0 254.208,0 357.009067,0 L666.990933,0 Z" id="Path" stroke="#979797" fill="#D8D8D8" sketch:type="MSShapeGroup"></path>
            <path d="M708.578069,785.972898 C651.919477,831.174485 580.114991,858.192972 502,858.192972 C318.917605,858.192972 170.5,709.775367 170.5,526.692972 C170.5,344.862139 316.89536,197.223773 498.250214,195.213743 L498.250214,526.192983 L708.578069,785.972898 Z" id="Oval-16" fill="#FFFFFF" sketch:type="MSShapeGroup"></path>
            <path d="M864.55074,724.387593 C829.665842,736.862679 792.079702,743.657352 752.906582,743.657352 C657.949317,743.657352 572.317115,703.73201 511.881076,639.752425 L764.599544,433.109939 L864.55074,724.387593 Z" id="Oval-16-Copy" fill="#FFFFFF" sketch:type="MSShapeGroup" transform="translate(688.215908, 588.383646) rotate(-90.000000) translate(-688.215908, -588.383646) "></path>
            <path d="M864.55074,457.542774 C829.665842,470.017861 792.079702,476.812534 752.906582,476.812534 C657.949317,476.812534 572.317115,436.887192 511.881076,372.907607 L764.599544,166.265121 L864.55074,457.542774 Z" id="Oval-16-Copy-2" stroke="#FFFFFF" stroke-width="50" sketch:type="MSShapeGroup" transform="translate(688.215908, 321.538828) rotate(-162.000000) translate(-688.215908, -321.538828) "></path>
        </g>
        <g id="Artboard-28" sketch:type="MSArtboardGroup" transform="translate(-267.000000, -2848.000000)"></g>
    </g>
</svg>