<?xml version="1.0" encoding="UTF-8" standalone="no"?>
<svg width="1024px" height="1024px" viewBox="0 0 1024 1024" version="1.1" xmlns="http://www.w3.org/2000/svg" xmlns:xlink="http://www.w3.org/1999/xlink" xmlns:sketch="http://www.bohemiancoding.com/sketch/ns">
    <!-- Generator: Sketch 3.3.3 (12081) - http://www.bohemiancoding.com/sketch -->
    <title>Financial &amp; payment services</title>
    <desc>Created with Sketch.</desc>
    <defs></defs>
    <g id="Slushicons" stroke="none" stroke-width="1" fill="none" fill-rule="evenodd" sketch:type="MSPage">
        <g id="Financial-&amp;-payment-services" sketch:type="MSArtboardGroup">
            <path d="M666.990933,0 C769.792,0 821.179733,0 876.5184,17.4933333 C936.9344,39.4837333 984.516267,87.0656 1006.50667,147.4816 C1024,202.811733 1024,254.216533 1024,357.009067 L1024,666.990933 C1024,769.792 1024,821.179733 1006.50667,876.5184 C984.516267,936.9344 936.9344,984.516267 876.5184,1006.49813 C821.179733,1024 769.792,1024 666.990933,1024 L357.009067,1024 C254.208,1024 202.811733,1024 147.4816,1006.49813 C87.0656,984.516267 39.4837333,936.9344 17.4933333,876.5184 C0,821.179733 0,769.792 0,666.990933 L0,357.009067 C0,254.216533 0,202.811733 17.4933333,147.4816 C39.4837333,87.0656 87.0656,39.4837333 147.4816,17.4933333 C202.811733,0 254.208,0 357.009067,0 L666.990933,0 Z" id="Path-Copy" stroke="#979797" fill="#D8D8D8" sketch:type="MSShapeGroup"></path>
            <g id="Group" sketch:type="MSLayerGroup" transform="translate(175.000000, 216.000000)" stroke="#D8D8D8" fill="#FFFFFF">
                <rect id="Rectangle-11" stroke-width="40" sketch:type="MSShapeGroup" x="0" y="0" width="674" height="593"></rect>
                <path d="M417.616838,101.624901 L259.185996,101.624901 L259.185996,169.81585 L234.673155,169.81585 L234.673155,421.725413 L258.318528,421.725413 L258.318528,491.267864 L411.292283,491.267864 L411.292283,428.054364 L437.501586,428.054364 L437.501586,172.214468 L413.049066,172.214468 L413.049066,135.04" id="Path-85" stroke-width="30" sketch:type="MSShapeGroup"></path>
                <path d="M446.793064,186 L649.944067,186" id="Path-86" stroke-width="30" sketch:type="MSShapeGroup"></path>
                <path d="M446.793064,309 L649.944067,309" id="Path-86-Copy" stroke-width="30" sketch:type="MSShapeGroup"></path>
                <path d="M445.854346,441 L649.005348,441" id="Path-86-Copy-2" stroke-width="30" sketch:type="MSShapeGroup"></path>
                <path d="M31.5221524,436 L234.673155,436" id="Path-86-Copy-3" stroke-width="30" sketch:type="MSShapeGroup"></path>
                <path d="M31.5221524,311 L234.673155,311" id="Path-86-Copy-4" stroke-width="30" sketch:type="MSShapeGroup"></path>
                <path d="M31.5221524,183 L234.673155,183" id="Path-86-Copy-5" stroke-width="30" sketch:type="MSShapeGroup"></path>
            </g>
        </g>
        <g id="Artboard-28" sketch:type="MSArtboardGroup" transform="translate(-1391.000000, -2848.000000)"></g>
    </g>
</svg>