<?xml version="1.0" encoding="UTF-8" standalone="no"?>
<svg width="1024px" height="1024px" viewBox="0 0 1024 1024" version="1.1" xmlns="http://www.w3.org/2000/svg" xmlns:xlink="http://www.w3.org/1999/xlink" xmlns:sketch="http://www.bohemiancoding.com/sketch/ns">
    <!-- Generator: Sketch 3.3.3 (12081) - http://www.bohemiancoding.com/sketch -->
    <title>Food &amp; nutrition</title>
    <desc>Created with Sketch.</desc>
    <defs></defs>
    <g id="Slushicons" stroke="none" stroke-width="1" fill="none" fill-rule="evenodd" sketch:type="MSPage">
        <g id="Food-&amp;-nutrition" sketch:type="MSArtboardGroup">
            <path d="M357.009067,0 L666.990933,0 C769.792,0 821.179733,0 876.5184,17.4933333 C936.9344,39.4837333 984.516267,87.0656 1006.50667,147.4816 C1024,202.811733 1024,254.216533 1024,357.009067 L1024,666.990933 C1024,769.792 1024,821.179733 1006.50667,876.5184 C984.516267,936.9344 936.9344,984.516267 876.5184,1006.49813 C821.179733,1024 769.792,1024 666.990933,1024 L357.009067,1024 C254.208,1024 202.811733,1024 147.4816,1006.49813 C87.0656,984.516267 39.4837333,936.9344 17.4933333,876.5184 C0,821.179733 0,769.792 0,666.990933 L0,357.009067 C0,254.216533 0,202.811733 17.4933333,147.4816 C39.4837333,87.0656 87.0656,39.4837333 147.4816,17.4933333 C202.811733,0 254.208,0 357.009067,0 L357.009067,0" id="Path" stroke="#979797" fill="#D8D8D8" sketch:type="MSShapeGroup"></path>
            <g id="Group" sketch:type="MSLayerGroup" transform="translate(539.000000, 491.000000) rotate(-315.000000) translate(-539.000000, -491.000000) translate(353.500000, 108.000000)" fill="#FFFFFF">
                <path d="M258.21203,233.48802 C259.002925,109.493501 184.885627,9.09494702e-13 184.885627,9.09494702e-13 C184.885627,9.09494702e-13 111.840953,97.3516049 112.79087,233.48802 C113.740787,369.624435 184.885626,377.697389 184.885626,377.697389 C184.885626,377.697389 257.421135,357.482538 258.21203,233.48802 Z" id="Path-60" sketch:type="MSShapeGroup"></path>
                <path d="M178.5,567.570083 L156.172379,419.208736 C153.70601,402.820344 140.779971,381.735641 127.29285,372.10873 L0.408089571,281.540224 L0.408089571,407.487066 C0.408089571,424.054842 11.2471382,445.402889 24.6349069,455.181772 L178.5,567.570083 Z" id="Path-61" sketch:type="MSShapeGroup"></path>
                <path d="M178.5,765.649649 L156.172379,617.288302 C153.70601,600.89991 140.779971,579.815207 127.29285,570.188296 L0.408089571,479.61979 L0.408089571,605.566632 C0.408089571,622.134408 11.2471382,643.482455 24.6349069,653.261338 L178.5,765.649649 Z" id="Path-61-Copy" sketch:type="MSShapeGroup"></path>
                <path d="M192.5,567.570083 L214.827621,419.208736 C217.29399,402.820344 230.220029,381.735641 243.70715,372.10873 L370.59191,281.540224 L370.59191,407.487066 C370.59191,424.054842 359.752862,445.402889 346.365093,455.181772 L192.5,567.570083 Z" id="Path-61-Copy-3" sketch:type="MSShapeGroup"></path>
                <path d="M192.5,765.649649 L214.827621,617.288302 C217.29399,600.89991 230.220029,579.815207 243.70715,570.188296 L370.59191,479.61979 L370.59191,605.566632 C370.59191,622.134408 359.752862,643.482455 346.365093,653.261338 L192.5,765.649649 Z" id="Path-61-Copy-2" sketch:type="MSShapeGroup"></path>
            </g>
        </g>
        <g id="Artboard-28" sketch:type="MSArtboardGroup" transform="translate(-2515.000000, -2848.000000)"></g>
    </g>
</svg>