<?xml version="1.0" encoding="UTF-8" standalone="no"?>
<svg width="1024px" height="1024px" viewBox="0 0 1024 1024" version="1.1" xmlns="http://www.w3.org/2000/svg" xmlns:xlink="http://www.w3.org/1999/xlink" xmlns:sketch="http://www.bohemiancoding.com/sketch/ns">
    <!-- Generator: Sketch 3.3.3 (12081) - http://www.bohemiancoding.com/sketch -->
    <title>Gaming</title>
    <desc>Created with Sketch.</desc>
    <defs></defs>
    <g id="Slushicons" stroke="none" stroke-width="1" fill="none" fill-rule="evenodd" sketch:type="MSPage">
        <g id="Gaming" sketch:type="MSArtboardGroup">
            <path d="M357.009067,0 L666.990933,0 C769.792,0 821.179733,0 876.5184,17.4933333 C936.9344,39.4837333 984.516267,87.0656 1006.50667,147.4816 C1024,202.811733 1024,254.216533 1024,357.009067 L1024,666.990933 C1024,769.792 1024,821.179733 1006.50667,876.5184 C984.516267,936.9344 936.9344,984.516267 876.5184,1006.49813 C821.179733,1024 769.792,1024 666.990933,1024 L357.009067,1024 C254.208,1024 202.811733,1024 147.4816,1006.49813 C87.0656,984.516267 39.4837333,936.9344 17.4933333,876.5184 C0,821.179733 0,769.792 0,666.990933 L0,357.009067 C0,254.216533 0,202.811733 17.4933333,147.4816 C39.4837333,87.0656 87.0656,39.4837333 147.4816,17.4933333 C202.811733,0 254.208,0 357.009067,0 L357.009067,0" id="Path" stroke="#979797" fill="#D8D8D8" sketch:type="MSShapeGroup"></path>
            <path d="M277.615235,771.871094 C262.931641,793.519531 260.800185,798.342022 260.800185,798.342022 C246.674106,822.061018 257.603928,841.289062 285.222348,841.289062 L742.424143,841.289062 C770.03821,841.289062 779.867384,822.74716 764.315273,799.940482 C764.315273,799.940482 753.04961,782.930792 744.667975,771.871094 C734.028986,757.832782 705.164063,726.148438 705.164063,726.148438 C705.164063,726.148438 741.101563,730.230469 754.894531,717.982422 C768.6875,705.734375 773.130859,684.625 773.130859,684.625 C773.130859,684.625 768.080078,656.189453 744.667969,649.466797 C721.255859,642.744141 685.828125,644.257812 685.828125,644.257812 C685.828125,644.257812 680.945313,617.544922 662.212891,601.357422 C643.480469,585.169922 624.071891,567.694179 609.886719,546.556641 C601.284191,533.737884 587.005859,497.78125 587.005859,497.78125 C587.005859,497.78125 634.865234,485.070312 626.552734,448.996094 C618.240234,412.921875 570.292969,413.986328 570.292969,413.986328 L570.292969,384.726562 L453.425781,384.726562 L453.425781,413.986328 C453.425781,413.986328 402.933594,411.814453 398.082031,448.996094 C393.230469,486.177734 438.40625,494.710938 438.40625,494.710938 C438.40625,494.710938 424.343038,532.693227 412.560547,550.800781 C402.070046,566.922781 377.917969,585.962891 358.619141,606.482422 C339.320313,627.001953 340.144531,644.257812 340.144531,644.257812 C340.144531,644.257812 301.9375,640.726562 277.615234,652.453125 C253.292969,664.179688 254.263672,684.625 254.263672,684.625 C254.263672,684.625 257.640625,711.007812 277.615234,721.255859 C297.589844,731.503906 323.25,726.3125 323.25,726.3125 C323.25,726.3125 292.298828,750.222656 277.615235,771.871094 Z" id="Path-67" fill="#FFFFFF" sketch:type="MSShapeGroup"></path>
            <circle id="Oval-7" fill="#FFFFFF" sketch:type="MSShapeGroup" cx="512.5" cy="295.5" r="107.5"></circle>
        </g>
        <g id="Artboard-28" sketch:type="MSArtboardGroup" transform="translate(-3639.000000, -2848.000000)"></g>
    </g>
</svg>