<?xml version="1.0" encoding="UTF-8" standalone="no"?>
<svg width="1024px" height="1024px" viewBox="0 0 1024 1024" version="1.1" xmlns="http://www.w3.org/2000/svg" xmlns:xlink="http://www.w3.org/1999/xlink" xmlns:sketch="http://www.bohemiancoding.com/sketch/ns">
    <!-- Generator: Sketch 3.3.3 (12081) - http://www.bohemiancoding.com/sketch -->
    <title>Health &amp; wellbeing</title>
    <desc>Created with Sketch.</desc>
    <defs></defs>
    <g id="Slushicons" stroke="none" stroke-width="1" fill="none" fill-rule="evenodd" sketch:type="MSPage">
        <g id="Health-&amp;-wellbeing" sketch:type="MSArtboardGroup">
            <path d="M357.009067,0 L666.990933,0 C769.792,0 821.179733,0 876.5184,17.4933333 C936.9344,39.4837333 984.516267,87.0656 1006.50667,147.4816 C1024,202.811733 1024,254.216533 1024,357.009067 L1024,666.990933 C1024,769.792 1024,821.179733 1006.50667,876.5184 C984.516267,936.9344 936.9344,984.516267 876.5184,1006.49813 C821.179733,1024 769.792,1024 666.990933,1024 L357.009067,1024 C254.208,1024 202.811733,1024 147.4816,1006.49813 C87.0656,984.516267 39.4837333,936.9344 17.4933333,876.5184 C0,821.179733 0,769.792 0,666.990933 L0,357.009067 C0,254.216533 0,202.811733 17.4933333,147.4816 C39.4837333,87.0656 87.0656,39.4837333 147.4816,17.4933333 C202.811733,0 254.208,0 357.009067,0 L357.009067,0" id="Path" stroke="#979797" fill="#D8D8D8" sketch:type="MSShapeGroup"></path>
            <g id="Path-46-+-Path-46-Copy" sketch:type="MSLayerGroup" transform="translate(128.000000, 147.000000)" fill="#FFFFFF">
                <path d="M385.604777,729.923529 C385.604777,729.923529 120.112401,468.466113 36.9082687,352.908918 C-46.2958631,237.351723 32.9726737,101.811753 32.9726737,101.811753 C44.3621855,76.6831797 73.2940122,45.6682581 98.262369,33.8842 C98.262369,33.8842 177.560792,-17.8775201 271.3612,6.10278408 C365.161607,30.0830882 385.604777,129.320221 385.604777,129.320221 L385.604777,729.923529 Z" id="Path-46" sketch:type="MSShapeGroup"></path>
                <path d="M769.307412,729.923529 C769.307412,729.923529 503.815035,468.466113 420.610903,352.908918 C337.406771,237.351723 416.675308,101.811753 416.675308,101.811753 C428.06482,76.6831797 456.996647,45.6682581 481.965004,33.8842 C481.965004,33.8842 561.263427,-17.8775201 655.063834,6.10278408 C748.864242,30.0830882 769.307412,129.320221 769.307412,129.320221 L769.307412,729.923529 Z" id="Path-46-Copy" sketch:type="MSShapeGroup" transform="translate(576.596290, 365.076218) scale(-1, 1) translate(-576.596290, -365.076218) "></path>
            </g>
            <path d="M-1.42108547e-14,576.96875 L414.193608,581.796875 L474.21875,492.53125 L520.1875,638.578125 L564.75,386 L599.5625,576.96875 L1119.08456,576.96875" id="Path-80" stroke="#D8D8D8" stroke-width="30" sketch:type="MSShapeGroup"></path>
        </g>
        <g id="Artboard-28" sketch:type="MSArtboardGroup" transform="translate(-4763.000000, -2848.000000)"></g>
    </g>
</svg>