<?xml version="1.0" encoding="UTF-8" standalone="no"?>
<svg width="1024px" height="1024px" viewBox="0 0 1024 1024" version="1.1" xmlns="http://www.w3.org/2000/svg" xmlns:xlink="http://www.w3.org/1999/xlink" xmlns:sketch="http://www.bohemiancoding.com/sketch/ns">
    <!-- Generator: Sketch 3.3.3 (12081) - http://www.bohemiancoding.com/sketch -->
    <title>Manufacturnig tech &amp; materials</title>
    <desc>Created with Sketch.</desc>
    <defs></defs>
    <g id="Slushicons" stroke="none" stroke-width="1" fill="none" fill-rule="evenodd" sketch:type="MSPage">
        <g id="Manufacturnig-tech-&amp;-materials" sketch:type="MSArtboardGroup">
            <path d="M357.009067,0 L666.990933,0 C769.792,0 821.179733,0 876.5184,17.4933333 C936.9344,39.4837333 984.516267,87.0656 1006.50667,147.4816 C1024,202.811733 1024,254.216533 1024,357.009067 L1024,666.990933 C1024,769.792 1024,821.179733 1006.50667,876.5184 C984.516267,936.9344 936.9344,984.516267 876.5184,1006.49813 C821.179733,1024 769.792,1024 666.990933,1024 L357.009067,1024 C254.208,1024 202.811733,1024 147.4816,1006.49813 C87.0656,984.516267 39.4837333,936.9344 17.4933333,876.5184 C0,821.179733 0,769.792 0,666.990933 L0,357.009067 C0,254.216533 0,202.811733 17.4933333,147.4816 C39.4837333,87.0656 87.0656,39.4837333 147.4816,17.4933333 C202.811733,0 254.208,0 357.009067,0 L357.009067,0" id="Path" stroke="#979797" fill="#D8D8D8" sketch:type="MSShapeGroup"></path>
            <path d="M161.766959,793.133962 L862.233041,793.133962 L862.233041,499.752931 L641.074027,378.803583 L641.074027,494.75004 L392.870267,378.803583 L392.870267,495.625162 L285.916909,494.75003 L285.916909,230.866038 L161.766959,230.866038 L161.766959,793.133962 Z" id="Path-94" fill="#FFFFFF" sketch:type="MSShapeGroup"></path>
        </g>
        <g id="Artboard-28" sketch:type="MSArtboardGroup" transform="translate(-1391.000000, -4022.000000)"></g>
    </g>
</svg>