<?xml version="1.0" encoding="UTF-8" standalone="no"?>
<svg width="1024px" height="1024px" viewBox="0 0 1024 1024" version="1.1" xmlns="http://www.w3.org/2000/svg" xmlns:xlink="http://www.w3.org/1999/xlink" xmlns:sketch="http://www.bohemiancoding.com/sketch/ns">
    <!-- Generator: Sketch 3.3.3 (12081) - http://www.bohemiancoding.com/sketch -->
    <title>Medtech &amp; pharma</title>
    <desc>Created with Sketch.</desc>
    <defs></defs>
    <g id="Slushicons" stroke="none" stroke-width="1" fill="none" fill-rule="evenodd" sketch:type="MSPage">
        <g id="Medtech-&amp;-pharma" sketch:type="MSArtboardGroup">
            <path d="M666.990933,0 C769.792,0 821.179733,0 876.5184,17.4933333 C936.9344,39.4837333 984.516267,87.0656 1006.50667,147.4816 C1024,202.811733 1024,254.216533 1024,357.009067 L1024,666.990933 C1024,769.792 1024,821.179733 1006.50667,876.5184 C984.516267,936.9344 936.9344,984.516267 876.5184,1006.49813 C821.179733,1024 769.792,1024 666.990933,1024 L357.009067,1024 C254.208,1024 202.811733,1024 147.4816,1006.49813 C87.0656,984.516267 39.4837333,936.9344 17.4933333,876.5184 C0,821.179733 0,769.792 0,666.990933 L0,357.009067 C0,254.216533 0,202.811733 17.4933333,147.4816 C39.4837333,87.0656 87.0656,39.4837333 147.4816,17.4933333 C202.811733,0 254.208,0 357.009067,0 L666.990933,0 Z" id="Path" stroke="#979797" fill="#D8D8D8" sketch:type="MSShapeGroup"></path>
            <g id="Group" sketch:type="MSLayerGroup" transform="translate(311.000000, 176.000000)">
                <path d="M164.098234,82.2108468 C214.827715,60.9313213 242.613932,29.3517627 226.160487,11.6759286 C209.707042,-5.99990564 155.244519,-3.0785366 104.515038,18.2009889 C53.7855571,39.4805144 25.9993398,71.060073 42.452785,88.7359072 C58.9062302,106.411741 113.368753,103.490372 164.098234,82.2108468 L164.098234,82.2108468 Z" id="Oval-16" fill="#FFFFFF" sketch:type="MSShapeGroup"></path>
                <path d="M78.6392805,716.651061 L275.979504,716.651061 L220.778038,686.121879 L220.778038,254.449509 L134.472247,254.449509 L134.472247,686.121879 L78.6392805,716.651061 Z" id="Path-97" fill="#FFFFFF" sketch:type="MSShapeGroup"></path>
                <path d="M354.739684,142.573671 C333.06459,219.982908 261.939884,276.759662 177.542334,276.759662 C93.1447838,276.759662 22.0200778,219.982908 0.344984466,142.573671 L354.739684,142.573671 Z" id="Oval-15" fill="#FFFFFF" sketch:type="MSShapeGroup"></path>
                <path d="M316.606479,671.772683 L143.52222,604.496803 C92.0463605,584.488722 92.1626253,552.356702 143.779442,532.728862 L223.143969,502.549662 C274.761888,482.921403 274.376547,452.155568 222.271869,433.828231 L94.1591625,388.765775 C42.0595961,370.440236 43.967705,348.155577 98.2719468,338.045037 C98.2719468,338.045037 327.343893,304.888501 374.665687,247.772756 C421.987482,190.65701 410.024437,57.579641 310.281379,26.1752129 C210.538322,-5.22921525 164.827948,44.2863583 164.827948,44.2863583" id="Path-98" stroke="#FFFFFF" stroke-width="60" sketch:type="MSShapeGroup"></path>
            </g>
        </g>
        <g id="Artboard-28" sketch:type="MSArtboardGroup" transform="translate(-2515.000000, -4022.000000)"></g>
    </g>
</svg>