<?xml version="1.0" encoding="UTF-8" standalone="no"?>
<svg width="1024px" height="1024px" viewBox="0 0 1024 1024" version="1.1" xmlns="http://www.w3.org/2000/svg" xmlns:xlink="http://www.w3.org/1999/xlink" xmlns:sketch="http://www.bohemiancoding.com/sketch/ns">
    <!-- Generator: Sketch 3.3.3 (12081) - http://www.bohemiancoding.com/sketch -->
    <title>Robotics</title>
    <desc>Created with Sketch.</desc>
    <defs></defs>
    <g id="Slushicons" stroke="none" stroke-width="1" fill="none" fill-rule="evenodd" sketch:type="MSPage">
        <g id="Robotics" sketch:type="MSArtboardGroup">
            <path d="M666.990933,0 C769.792,0 821.179733,0 876.5184,17.4933333 C936.9344,39.4837333 984.516267,87.0656 1006.50667,147.4816 C1024,202.811733 1024,254.216533 1024,357.009067 L1024,666.990933 C1024,769.792 1024,821.179733 1006.50667,876.5184 C984.516267,936.9344 936.9344,984.516267 876.5184,1006.49813 C821.179733,1024 769.792,1024 666.990933,1024 L357.009067,1024 C254.208,1024 202.811733,1024 147.4816,1006.49813 C87.0656,984.516267 39.4837333,936.9344 17.4933333,876.5184 C0,821.179733 0,769.792 0,666.990933 L0,357.009067 C0,254.216533 0,202.811733 17.4933333,147.4816 C39.4837333,87.0656 87.0656,39.4837333 147.4816,17.4933333 C202.811733,0 254.208,0 357.009067,0 L666.990933,0 Z" id="Path" stroke="#979797" fill="#D8D8D8" sketch:type="MSShapeGroup"></path>
            <path d="M735.757436,878.542636 L393.636006,878.542636 L393.636008,811.513044 L187.334777,483.432894 L260.627179,421.46329 L393.636006,566.746402 L393.636006,143.470736 L531.019151,143.470736 L531.019151,579.111808 L531.019164,353.142092 L640.170684,353.142092 L640.170684,579.111819 L640.170684,377.683551 L735.757384,377.683551 L735.757384,579.111819 L735.757384,421.46329 L828.077269,421.46329 L828.077254,721.162883 L735.757436,878.542636 Z" id="Path-117" stroke="#FFFFFF" stroke-width="50" sketch:type="MSShapeGroup"></path>
            <path d="M530.955666,574.609374 L530.955666,652.807446 L640.171708,652.807442 L640.439957,568.703346 L641.171708,652.807446 L730.470857,668.603447 L734.629914,604 L822.077269,604" id="Path-118" stroke="#FFFFFF" stroke-width="50" sketch:type="MSShapeGroup"></path>
            <path d="M416.884614,262 L535.000001,262" id="Path-118-Copy" stroke="#FFFFFF" stroke-width="30" sketch:type="MSShapeGroup"></path>
            <path d="M379,433 L511.057693,433" id="Path-118-Copy-2" stroke="#FFFFFF" stroke-width="30" sketch:type="MSShapeGroup"></path>
        </g>
        <g id="Artboard-28" sketch:type="MSArtboardGroup" transform="translate(-267.000000, -5196.000000)"></g>
    </g>
</svg>