<?xml version="1.0" encoding="UTF-8" standalone="no"?>
<svg width="1024px" height="1024px" viewBox="0 0 1024 1024" version="1.1" xmlns="http://www.w3.org/2000/svg" xmlns:xlink="http://www.w3.org/1999/xlink" xmlns:sketch="http://www.bohemiancoding.com/sketch/ns">
    <!-- Generator: Sketch 3.3.3 (12081) - http://www.bohemiancoding.com/sketch -->
    <title>Social entrepreneurship &amp; Impact</title>
    <desc>Created with Sketch.</desc>
    <defs></defs>
    <g id="Slushicons" stroke="none" stroke-width="1" fill="none" fill-rule="evenodd" sketch:type="MSPage">
        <g id="Social-entrepreneurship-&amp;-Impact" sketch:type="MSArtboardGroup">
            <path d="M357.009067,0 L666.990933,0 C769.792,0 821.179733,0 876.5184,17.4933333 C936.9344,39.4837333 984.516267,87.0656 1006.50667,147.4816 C1024,202.811733 1024,254.216533 1024,357.009067 L1024,666.990933 C1024,769.792 1024,821.179733 1006.50667,876.5184 C984.516267,936.9344 936.9344,984.516267 876.5184,1006.49813 C821.179733,1024 769.792,1024 666.990933,1024 L357.009067,1024 C254.208,1024 202.811733,1024 147.4816,1006.49813 C87.0656,984.516267 39.4837333,936.9344 17.4933333,876.5184 C0,821.179733 0,769.792 0,666.990933 L0,357.009067 C0,254.216533 0,202.811733 17.4933333,147.4816 C39.4837333,87.0656 87.0656,39.4837333 147.4816,17.4933333 C202.811733,0 254.208,0 357.009067,0 L357.009067,0" id="Path" stroke="#979797" fill="#D8D8D8" sketch:type="MSShapeGroup"></path>
            <path d="M453.177519,788.86238 L464.714836,761.031245 L357.046882,761.031245 C357.046882,761.031245 313.707039,756.009563 313.707039,713.203128 C313.707039,670.396693 357.046882,661.439586 357.046882,661.439586 L691.218767,661.439585 L818.499838,734.744304 L815.199708,908.787334 L691.218791,833.394539 L483.371105,919.558586 L175.554687,720.906248 C175.554687,720.906248 139.515625,675.476565 170.769532,641.832033 C202.023438,608.187501 249.585937,641.832032 249.585937,641.832032 L318.140632,694.937503" id="Path-69" stroke="#D8D8D8" stroke-width="25" stroke-linecap="round" stroke-linejoin="round" fill="#FFFFFF" sketch:type="MSShapeGroup"></path>
            <circle id="Oval-8" stroke="#FFFFFF" stroke-width="25" sketch:type="MSShapeGroup" cx="512" cy="376" r="251"></circle>
            <path d="M257.460551,376 L766.539449,376" id="Path-70" stroke="#FFFFFF" stroke-width="25" sketch:type="MSShapeGroup"></path>
            <path d="M512,127.515491 L512,624.484509" id="Path-71" stroke="#FFFFFF" stroke-width="25" sketch:type="MSShapeGroup"></path>
            <path d="M513.1875,624.1875 C513.1875,624.1875 644.179688,538.33593 644.179688,379.166649 C644.179688,219.997368 513.1875,134.145805 513.1875,134.145805" id="Path-72" stroke="#FFFFFF" stroke-width="25" sketch:type="MSShapeGroup"></path>
            <path d="M466.800123,417.892835 C466.800123,417.892835 557.199877,358.645326 557.199877,248.800121 C557.199877,138.954915 466.800123,79.7074112 466.800123,79.7074112" id="Path-72-Copy-2" stroke="#FFFFFF" stroke-width="25" sketch:type="MSShapeGroup" transform="translate(512.000000, 248.800123) rotate(-270.000000) translate(-512.000000, -248.800123) "></path>
            <path d="M466.800123,681.092712 C466.800123,681.092712 557.199877,621.845203 557.199877,511.999997 C557.199877,402.154792 466.800123,342.907288 466.800123,342.907288" id="Path-72-Copy-3" stroke="#FFFFFF" stroke-width="25" sketch:type="MSShapeGroup" transform="translate(512.000000, 512.000000) rotate(-90.000000) translate(-512.000000, -512.000000) "></path>
            <path d="M381.007812,621.020847 C381.007812,621.020847 512,535.169277 512,375.999996 C512,216.830715 381.007813,130.979153 381.007813,130.979153" id="Path-72-Copy" stroke="#FFFFFF" stroke-width="25" sketch:type="MSShapeGroup" transform="translate(446.503906, 376.000000) rotate(-180.000000) translate(-446.503906, -376.000000) "></path>
        </g>
        <g id="Artboard-28" sketch:type="MSArtboardGroup" transform="translate(-1391.000000, -6370.000000)"></g>
    </g>
</svg>