<?xml version="1.0" encoding="UTF-8" standalone="no"?>
<svg width="1024px" height="1024px" viewBox="0 0 1024 1024" version="1.1" xmlns="http://www.w3.org/2000/svg" xmlns:xlink="http://www.w3.org/1999/xlink" xmlns:sketch="http://www.bohemiancoding.com/sketch/ns">
    <!-- Generator: Sketch 3.3.3 (12081) - http://www.bohemiancoding.com/sketch -->
    <title>Space technology</title>
    <desc>Created with Sketch.</desc>
    <defs></defs>
    <g id="Slushicons" stroke="none" stroke-width="1" fill="none" fill-rule="evenodd" sketch:type="MSPage">
        <g id="Space-technology" sketch:type="MSArtboardGroup">
            <path d="M357.009067,0 L666.990933,0 C769.792,0 821.179733,0 876.5184,17.4933333 C936.9344,39.4837333 984.516267,87.0656 1006.50667,147.4816 C1024,202.811733 1024,254.216533 1024,357.009067 L1024,666.990933 C1024,769.792 1024,821.179733 1006.50667,876.5184 C984.516267,936.9344 936.9344,984.516267 876.5184,1006.49813 C821.179733,1024 769.792,1024 666.990933,1024 L357.009067,1024 C254.208,1024 202.811733,1024 147.4816,1006.49813 C87.0656,984.516267 39.4837333,936.9344 17.4933333,876.5184 C0,821.179733 0,769.792 0,666.990933 L0,357.009067 C0,254.216533 0,202.811733 17.4933333,147.4816 C39.4837333,87.0656 87.0656,39.4837333 147.4816,17.4933333 C202.811733,0 254.208,0 357.009067,0 L357.009067,0" id="Path" stroke="#979797" fill="#D8D8D8" sketch:type="MSShapeGroup"></path>
            <path d="M163.993262,578.516001 L270.970548,604.31206 L273.186619,620.94504 L415.770435,750.954522 L441.475195,854.968748 L543.464248,779.15755 L541.148578,657.489457 C541.148578,657.489457 746.732055,499.823252 804.512427,413.207084 C861.359074,327.990622 885.029635,141.991568 885.029635,141.991568 C885.029635,141.991568 681.71116,178.828212 605.256933,229.671607 C508.924043,293.73466 366.668284,486.710914 366.668284,486.710914 L239.621862,481.813979 L163.993262,578.516001 Z" id="Path-81" fill="#FFFFFF" sketch:type="MSShapeGroup"></path>
            <path d="M249.91373,693.826377 C249.91373,693.826377 202.100096,738.487475 195.960288,767.010663 C191.498369,787.739024 190.262415,835.439106 190.262415,835.439106 C190.262415,835.439106 230.400677,834.440533 249.91373,829.749532 C278.977169,822.762587 346.159259,755.735256 346.159259,755.735256 L371.648211,755.735256 C371.648211,755.735256 281.605615,851.828715 244.074756,865.25646 C213.54928,876.177827 141.990252,882.972578 141.990252,882.972578 C141.990252,882.972578 144.190524,800.692604 155.460975,767.010663 C168.044409,729.404846 261.703723,661.09576 261.703723,661.09576 L249.91373,693.826377 Z" id="Path-82" fill="#FFFFFF" sketch:type="MSShapeGroup"></path>
        </g>
        <g id="Artboard-28" sketch:type="MSArtboardGroup" transform="translate(-2515.000000, -5196.000000)"></g>
    </g>
</svg>