<?xml version="1.0" encoding="UTF-8" standalone="no"?>
<svg width="1024px" height="1024px" viewBox="0 0 1024 1024" version="1.1" xmlns="http://www.w3.org/2000/svg" xmlns:xlink="http://www.w3.org/1999/xlink" xmlns:sketch="http://www.bohemiancoding.com/sketch/ns">
    <!-- Generator: Sketch 3.3.3 (12081) - http://www.bohemiancoding.com/sketch -->
    <title>Transport &amp; automotive</title>
    <desc>Created with Sketch.</desc>
    <defs></defs>
    <g id="Slushicons" stroke="none" stroke-width="1" fill="none" fill-rule="evenodd" sketch:type="MSPage">
        <g id="Transport-&amp;-automotive" sketch:type="MSArtboardGroup">
            <path d="M357.009067,0 L666.990933,0 C769.792,0 821.179733,0 876.5184,17.4933333 C936.9344,39.4837333 984.516267,87.0656 1006.50667,147.4816 C1024,202.811733 1024,254.216533 1024,357.009067 L1024,666.990933 C1024,769.792 1024,821.179733 1006.50667,876.5184 C984.516267,936.9344 936.9344,984.516267 876.5184,1006.49813 C821.179733,1024 769.792,1024 666.990933,1024 L357.009067,1024 C254.208,1024 202.811733,1024 147.4816,1006.49813 C87.0656,984.516267 39.4837333,936.9344 17.4933333,876.5184 C0,821.179733 0,769.792 0,666.990933 L0,357.009067 C0,254.216533 0,202.811733 17.4933333,147.4816 C39.4837333,87.0656 87.0656,39.4837333 147.4816,17.4933333 C202.811733,0 254.208,0 357.009067,0 L357.009067,0" id="Path" stroke="#979797" fill="#D8D8D8" sketch:type="MSShapeGroup"></path>
            <circle id="Oval-10" fill="#FFFFFF" sketch:type="MSShapeGroup" cx="512.5" cy="512.5" r="360.5"></circle>
            <circle id="Oval-11" fill="#D8D8D8" sketch:type="MSShapeGroup" cx="512" cy="512" r="67"></circle>
            <path d="M239.402344,471.265625 C239.402344,471.265625 239.398438,471.265625 330.523436,471.265625 C421.648434,471.265625 427.039062,401.941406 510.773438,401.941406 C594.507812,401.941406 618.789062,471.265625 701.648438,471.265625 L786.648438,471.265625 C786.648438,471.265625 739.648438,235.40625 510.773438,235.40625 C281.898438,235.40625 239.402344,471.265625 239.402344,471.265625 Z" id="Path-77" fill="#D8D8D8" sketch:type="MSShapeGroup"></path>
            <path d="M568.759587,783.023441 C568.759587,783.023441 648.875,771.000012 707.453125,709.644535 C766.03125,648.289059 784.906689,568.585499 784.906689,568.585499 L648.764944,568.585499 C604.579205,568.585499 568.759587,604.402117 568.759587,648.58672 L568.759587,783.023441 Z" id="Path-78" fill="#D8D8D8" sketch:type="MSShapeGroup"></path>
            <path d="M239.402344,783.023441 C239.402344,783.023441 319.517757,771.000012 378.095882,709.644535 C436.674007,648.289059 455.549445,568.585499 455.549445,568.585499 L319.407701,568.585499 C275.221962,568.585499 239.402344,604.402117 239.402344,648.58672 L239.402344,783.023441 Z" id="Path-78-Copy" fill="#D8D8D8" sketch:type="MSShapeGroup" transform="translate(347.475895, 675.804470) scale(-1, 1) translate(-347.475895, -675.804470) "></path>
        </g>
        <g id="Artboard-28" sketch:type="MSArtboardGroup" transform="translate(-3639.000000, -5196.000000)"></g>
    </g>
</svg>