<?xml version="1.0" encoding="UTF-8" standalone="no"?>
<svg width="1024px" height="1024px" viewBox="0 0 1024 1024" version="1.1" xmlns="http://www.w3.org/2000/svg" xmlns:xlink="http://www.w3.org/1999/xlink" xmlns:sketch="http://www.bohemiancoding.com/sketch/ns">
    <!-- Generator: Sketch 3.3.3 (12081) - http://www.bohemiancoding.com/sketch -->
    <title>Wearable technology</title>
    <desc>Created with Sketch.</desc>
    <defs></defs>
    <g id="Slushicons" stroke="none" stroke-width="1" fill="none" fill-rule="evenodd" sketch:type="MSPage">
        <g id="Wearable-technology" sketch:type="MSArtboardGroup">
            <path d="M357.009067,0 L666.990933,0 C769.792,0 821.179733,0 876.5184,17.4933333 C936.9344,39.4837333 984.516267,87.0656 1006.50667,147.4816 C1024,202.811733 1024,254.216533 1024,357.009067 L1024,666.990933 C1024,769.792 1024,821.179733 1006.50667,876.5184 C984.516267,936.9344 936.9344,984.516267 876.5184,1006.49813 C821.179733,1024 769.792,1024 666.990933,1024 L357.009067,1024 C254.208,1024 202.811733,1024 147.4816,1006.49813 C87.0656,984.516267 39.4837333,936.9344 17.4933333,876.5184 C0,821.179733 0,769.792 0,666.990933 L0,357.009067 C0,254.216533 0,202.811733 17.4933333,147.4816 C39.4837333,87.0656 87.0656,39.4837333 147.4816,17.4933333 C202.811733,0 254.208,0 357.009067,0 L357.009067,0" id="Path" stroke="#979797" fill="#D8D8D8" sketch:type="MSShapeGroup"></path>
            <g id="Group" sketch:type="MSLayerGroup" transform="translate(313.000000, 76.000000)">
                <path d="M107.529918,0 L262.765046,0 C269.361338,0 275.246187,6.43013406 275.909148,14.361213 L292.791367,216.324918 L77.5035971,216.324918 L94.3858158,14.361213 C95.0488109,6.42973406 100.934884,0 107.529918,0 Z" id="Rectangle-6" fill="#FFFFFF" sketch:type="MSShapeGroup"></path>
                <path d="M265.157133,872 L109.922004,872 C103.325712,872 97.4408638,865.569866 96.7779021,857.638787 L79.8956835,655.675082 L295.183453,655.675082 L278.301235,857.638787 C277.638239,865.570266 271.752166,872 265.157133,872 L265.157133,872 Z" id="Rectangle-6-Copy" fill="#FFFFFF" sketch:type="MSShapeGroup"></path>
                <rect id="Rectangle-5" stroke="#FFFFFF" stroke-width="30" stroke-linecap="round" stroke-linejoin="bevel" sketch:type="MSShapeGroup" x="21.0503597" y="241.211855" width="332.978417" height="395.319429"></rect>
                <rect id="Rectangle-5-Copy" stroke="#FFFFFF" stroke-width="10" stroke-linecap="round" stroke-linejoin="bevel" fill="#FFFFFF" sketch:type="MSShapeGroup" x="354.028777" y="383.83315" width="44.971223" height="109.119649"></rect>
                <rect id="Rectangle-5-Copy-2" stroke="#FFFFFF" stroke-width="10" stroke-linecap="round" stroke-linejoin="bevel" fill="#FFFFFF" sketch:type="MSShapeGroup" x="0" y="343.631175" width="21.0503597" height="50.7310648"></rect>
                <rect id="Rectangle-5-Copy-3" stroke="#FFFFFF" stroke-width="10" stroke-linecap="round" stroke-linejoin="bevel" fill="#FFFFFF" sketch:type="MSShapeGroup" x="0" y="413.506037" width="21.0503597" height="50.7310648"></rect>
            </g>
            <path d="M465.118222,647 L594.299346,489.776992 L519.81648,490.880442 L558.458922,378 L430,533.911887 L505.068686,534.33033 L465.118222,647 Z" id="Path-54" fill="#FFFFFF" sketch:type="MSShapeGroup"></path>
        </g>
        <g id="Artboard-28" sketch:type="MSArtboardGroup" transform="translate(-267.000000, -6370.000000)"></g>
    </g>
</svg>